G04 (created by PCBNEW (2013-june-11)-stable) date Tue 21 Jul 2015 11:16:44 AM EDT*
%MOIN*%
G04 Gerber Fmt 3.4, Leading zero omitted, Abs format*
%FSLAX34Y34*%
G01*
G70*
G90*
G04 APERTURE LIST*
%ADD10C,0.00590551*%
%ADD11C,0.005*%
%ADD12C,0.0026*%
%ADD13C,0.008*%
%ADD14C,0.015*%
%ADD15C,0.006*%
%ADD16R,0.37X0.44*%
%ADD17R,0.14X0.09*%
%ADD18C,0.32*%
%ADD19R,0.1X0.15*%
%ADD20R,0.19X0.19*%
%ADD21C,0.055*%
%ADD22C,0.27*%
%ADD23R,0.465X0.114*%
%ADD24R,0.1066X0.0909*%
%ADD25R,0.1X0.08*%
%ADD26R,0.0909X0.1066*%
%ADD27R,0.42X0.114*%
%ADD28C,0.14*%
%ADD29C,0.01*%
G04 APERTURE END LIST*
G54D10*
G54D11*
X18425Y-19950D02*
X23125Y-19950D01*
X23125Y-19950D02*
X23125Y-24450D01*
X23125Y-24450D02*
X18425Y-24450D01*
X18425Y-24450D02*
X18425Y-19950D01*
X23125Y-22700D02*
X24825Y-22700D01*
X24825Y-22700D02*
X24825Y-23700D01*
X24825Y-23700D02*
X23125Y-23700D01*
X23125Y-20700D02*
X24825Y-20700D01*
X24825Y-20700D02*
X24825Y-21700D01*
X24825Y-21700D02*
X23125Y-21700D01*
X23880Y-9760D02*
X23880Y-11360D01*
X23980Y-9760D02*
X23980Y-11360D01*
X25180Y-11360D02*
X23880Y-11360D01*
X25180Y-9760D02*
X23880Y-9760D01*
X26580Y-9760D02*
X27880Y-9760D01*
X27880Y-9760D02*
X27880Y-11360D01*
X27880Y-11410D02*
X26580Y-11410D01*
G54D12*
X19032Y-13908D02*
X20331Y-13908D01*
X21669Y-17292D02*
X22968Y-17292D01*
X19032Y-13908D02*
X19032Y-17292D01*
X19032Y-17292D02*
X22968Y-17292D01*
X22968Y-13908D02*
X22968Y-17292D01*
X19032Y-13908D02*
X22968Y-13908D01*
G54D13*
X23500Y-13600D02*
X18500Y-13600D01*
X18500Y-17600D02*
X23500Y-17600D01*
X23468Y-17600D02*
X23468Y-13600D01*
X18532Y-17600D02*
X18532Y-13600D01*
G54D11*
X24650Y-21900D02*
X24650Y-21820D01*
X25400Y-21300D02*
X25400Y-23100D01*
X25400Y-23100D02*
X25150Y-23100D01*
X23900Y-22460D02*
X25400Y-22460D01*
X23900Y-22590D02*
X25400Y-22590D01*
X24150Y-21300D02*
X23900Y-21300D01*
X23900Y-21300D02*
X23900Y-23100D01*
X23900Y-23100D02*
X24150Y-23100D01*
X25150Y-21300D02*
X25400Y-21300D01*
X24650Y-22150D02*
X24837Y-21900D01*
X24837Y-21900D02*
X24650Y-21900D01*
X24650Y-21900D02*
X24463Y-21900D01*
X24463Y-21900D02*
X24650Y-22150D01*
X24650Y-22150D02*
X24775Y-22150D01*
X24775Y-22150D02*
X24837Y-22088D01*
X24650Y-22150D02*
X24525Y-22150D01*
X24525Y-22150D02*
X24463Y-22212D01*
X24650Y-22150D02*
X24650Y-22587D01*
X27100Y-22500D02*
X27100Y-22580D01*
X26350Y-23100D02*
X26350Y-21300D01*
X26350Y-21300D02*
X26600Y-21300D01*
X27850Y-21940D02*
X26350Y-21940D01*
X27850Y-21810D02*
X26350Y-21810D01*
X27600Y-23100D02*
X27850Y-23100D01*
X27850Y-23100D02*
X27850Y-21300D01*
X27850Y-21300D02*
X27600Y-21300D01*
X26600Y-23100D02*
X26350Y-23100D01*
X27100Y-22250D02*
X26913Y-22500D01*
X26913Y-22500D02*
X27100Y-22500D01*
X27100Y-22500D02*
X27287Y-22500D01*
X27287Y-22500D02*
X27100Y-22250D01*
X27100Y-22250D02*
X26975Y-22250D01*
X26975Y-22250D02*
X26913Y-22312D01*
X27100Y-22250D02*
X27225Y-22250D01*
X27225Y-22250D02*
X27287Y-22188D01*
X27100Y-22250D02*
X27100Y-21813D01*
X29050Y-18500D02*
X28150Y-18500D01*
X28150Y-18500D02*
X28150Y-19150D01*
X29050Y-19850D02*
X29050Y-20500D01*
X29050Y-20500D02*
X28150Y-20500D01*
X28150Y-20500D02*
X28150Y-19850D01*
X29050Y-19150D02*
X29050Y-18500D01*
X27800Y-24475D02*
X27880Y-24475D01*
X28400Y-25225D02*
X26600Y-25225D01*
X26600Y-25225D02*
X26600Y-24975D01*
X27240Y-23725D02*
X27240Y-25225D01*
X27110Y-23725D02*
X27110Y-25225D01*
X28400Y-23975D02*
X28400Y-23725D01*
X28400Y-23725D02*
X26600Y-23725D01*
X26600Y-23725D02*
X26600Y-23975D01*
X28400Y-24975D02*
X28400Y-25225D01*
X27550Y-24475D02*
X27800Y-24662D01*
X27800Y-24662D02*
X27800Y-24475D01*
X27800Y-24475D02*
X27800Y-24288D01*
X27800Y-24288D02*
X27550Y-24475D01*
X27550Y-24475D02*
X27550Y-24600D01*
X27550Y-24600D02*
X27612Y-24662D01*
X27550Y-24475D02*
X27550Y-24350D01*
X27550Y-24350D02*
X27488Y-24288D01*
X27550Y-24475D02*
X27113Y-24475D01*
X24200Y-24675D02*
X24120Y-24675D01*
X23600Y-23925D02*
X25400Y-23925D01*
X25400Y-23925D02*
X25400Y-24175D01*
X24760Y-25425D02*
X24760Y-23925D01*
X24890Y-25425D02*
X24890Y-23925D01*
X23600Y-25175D02*
X23600Y-25425D01*
X23600Y-25425D02*
X25400Y-25425D01*
X25400Y-25425D02*
X25400Y-25175D01*
X23600Y-24175D02*
X23600Y-23925D01*
X24450Y-24675D02*
X24200Y-24488D01*
X24200Y-24488D02*
X24200Y-24675D01*
X24200Y-24675D02*
X24200Y-24862D01*
X24200Y-24862D02*
X24450Y-24675D01*
X24450Y-24675D02*
X24450Y-24550D01*
X24450Y-24550D02*
X24388Y-24488D01*
X24450Y-24675D02*
X24450Y-24800D01*
X24450Y-24800D02*
X24512Y-24862D01*
X24450Y-24675D02*
X24887Y-24675D01*
X23350Y-23200D02*
X24250Y-23200D01*
X24250Y-23200D02*
X24250Y-22550D01*
X23350Y-21850D02*
X23350Y-21200D01*
X23350Y-21200D02*
X24250Y-21200D01*
X24250Y-21200D02*
X24250Y-21850D01*
X23350Y-22550D02*
X23350Y-23200D01*
X28450Y-21200D02*
X27550Y-21200D01*
X27550Y-21200D02*
X27550Y-21850D01*
X28450Y-22550D02*
X28450Y-23200D01*
X28450Y-23200D02*
X27550Y-23200D01*
X27550Y-23200D02*
X27550Y-22550D01*
X28450Y-21850D02*
X28450Y-21200D01*
X23700Y-18500D02*
X22800Y-18500D01*
X22800Y-18500D02*
X22800Y-19150D01*
X23700Y-19850D02*
X23700Y-20500D01*
X23700Y-20500D02*
X22800Y-20500D01*
X22800Y-20500D02*
X22800Y-19850D01*
X23700Y-19150D02*
X23700Y-18500D01*
G54D12*
X28832Y-13908D02*
X30131Y-13908D01*
X31469Y-17292D02*
X32768Y-17292D01*
X28832Y-13908D02*
X28832Y-17292D01*
X28832Y-17292D02*
X32768Y-17292D01*
X32768Y-13908D02*
X32768Y-17292D01*
X28832Y-13908D02*
X32768Y-13908D01*
G54D13*
X33300Y-13600D02*
X28300Y-13600D01*
X28300Y-17600D02*
X33300Y-17600D01*
X33268Y-17600D02*
X33268Y-13600D01*
X28332Y-17600D02*
X28332Y-13600D01*
G54D14*
X26800Y-27200D02*
G75*
G03X26800Y-27200I-900J0D01*
G74*
G01*
G54D11*
X33350Y-24450D02*
X28650Y-24450D01*
X28650Y-24450D02*
X28650Y-19950D01*
X28650Y-19950D02*
X33350Y-19950D01*
X33350Y-19950D02*
X33350Y-24450D01*
X28650Y-21700D02*
X26950Y-21700D01*
X26950Y-21700D02*
X26950Y-20700D01*
X26950Y-20700D02*
X28650Y-20700D01*
X28650Y-23700D02*
X26950Y-23700D01*
X26950Y-23700D02*
X26950Y-22700D01*
X26950Y-22700D02*
X28650Y-22700D01*
G54D15*
X17827Y-22500D02*
X17779Y-22476D01*
X17732Y-22428D01*
X17660Y-22357D01*
X17613Y-22333D01*
X17565Y-22333D01*
X17589Y-22452D02*
X17541Y-22428D01*
X17494Y-22380D01*
X17470Y-22285D01*
X17470Y-22119D01*
X17494Y-22023D01*
X17541Y-21976D01*
X17589Y-21952D01*
X17684Y-21952D01*
X17732Y-21976D01*
X17779Y-22023D01*
X17803Y-22119D01*
X17803Y-22285D01*
X17779Y-22380D01*
X17732Y-22428D01*
X17684Y-22452D01*
X17589Y-22452D01*
X18279Y-22452D02*
X17994Y-22452D01*
X18136Y-22452D02*
X18136Y-21952D01*
X18089Y-22023D01*
X18041Y-22071D01*
X17994Y-22095D01*
G54D11*
X25721Y-11657D02*
X25764Y-11671D01*
X25835Y-11671D01*
X25864Y-11657D01*
X25878Y-11642D01*
X25892Y-11614D01*
X25892Y-11585D01*
X25878Y-11557D01*
X25864Y-11542D01*
X25835Y-11528D01*
X25778Y-11514D01*
X25750Y-11500D01*
X25735Y-11485D01*
X25721Y-11457D01*
X25721Y-11428D01*
X25735Y-11400D01*
X25750Y-11385D01*
X25778Y-11371D01*
X25850Y-11371D01*
X25892Y-11385D01*
X26178Y-11671D02*
X26007Y-11671D01*
X26092Y-11671D02*
X26092Y-11371D01*
X26064Y-11414D01*
X26035Y-11442D01*
X26007Y-11457D01*
X25671Y-19885D02*
X25642Y-19871D01*
X25600Y-19871D01*
X25557Y-19885D01*
X25528Y-19914D01*
X25514Y-19942D01*
X25500Y-20000D01*
X25500Y-20042D01*
X25514Y-20100D01*
X25528Y-20128D01*
X25557Y-20157D01*
X25600Y-20171D01*
X25628Y-20171D01*
X25671Y-20157D01*
X25685Y-20142D01*
X25685Y-20042D01*
X25628Y-20042D01*
X25814Y-20171D02*
X25814Y-19871D01*
X25985Y-20171D01*
X25985Y-19871D01*
X26128Y-20171D02*
X26128Y-19871D01*
X26200Y-19871D01*
X26242Y-19885D01*
X26271Y-19914D01*
X26285Y-19942D01*
X26300Y-20000D01*
X26300Y-20042D01*
X26285Y-20100D01*
X26271Y-20128D01*
X26242Y-20157D01*
X26200Y-20171D01*
X26128Y-20171D01*
X25153Y-22321D02*
X25153Y-22021D01*
X25225Y-22021D01*
X25267Y-22035D01*
X25296Y-22064D01*
X25310Y-22092D01*
X25325Y-22150D01*
X25325Y-22192D01*
X25310Y-22250D01*
X25296Y-22278D01*
X25267Y-22307D01*
X25225Y-22321D01*
X25153Y-22321D01*
X25425Y-22021D02*
X25610Y-22021D01*
X25510Y-22135D01*
X25553Y-22135D01*
X25582Y-22150D01*
X25596Y-22164D01*
X25610Y-22192D01*
X25610Y-22264D01*
X25596Y-22292D01*
X25582Y-22307D01*
X25553Y-22321D01*
X25467Y-22321D01*
X25439Y-22307D01*
X25425Y-22292D01*
X26178Y-22321D02*
X26178Y-22021D01*
X26250Y-22021D01*
X26292Y-22035D01*
X26321Y-22064D01*
X26335Y-22092D01*
X26350Y-22150D01*
X26350Y-22192D01*
X26335Y-22250D01*
X26321Y-22278D01*
X26292Y-22307D01*
X26250Y-22321D01*
X26178Y-22321D01*
X26607Y-22121D02*
X26607Y-22321D01*
X26535Y-22007D02*
X26464Y-22221D01*
X26650Y-22221D01*
X27775Y-19621D02*
X27675Y-19478D01*
X27603Y-19621D02*
X27603Y-19321D01*
X27717Y-19321D01*
X27746Y-19335D01*
X27760Y-19350D01*
X27775Y-19378D01*
X27775Y-19421D01*
X27760Y-19450D01*
X27746Y-19464D01*
X27717Y-19478D01*
X27603Y-19478D01*
X27889Y-19350D02*
X27903Y-19335D01*
X27932Y-19321D01*
X28003Y-19321D01*
X28032Y-19335D01*
X28046Y-19350D01*
X28060Y-19378D01*
X28060Y-19407D01*
X28046Y-19450D01*
X27875Y-19621D01*
X28060Y-19621D01*
X27328Y-25046D02*
X27328Y-24746D01*
X27400Y-24746D01*
X27442Y-24760D01*
X27471Y-24789D01*
X27485Y-24817D01*
X27500Y-24875D01*
X27500Y-24917D01*
X27485Y-24975D01*
X27471Y-25003D01*
X27442Y-25032D01*
X27400Y-25046D01*
X27328Y-25046D01*
X27614Y-24775D02*
X27628Y-24760D01*
X27657Y-24746D01*
X27728Y-24746D01*
X27757Y-24760D01*
X27771Y-24775D01*
X27785Y-24803D01*
X27785Y-24832D01*
X27771Y-24875D01*
X27600Y-25046D01*
X27785Y-25046D01*
X24228Y-25246D02*
X24228Y-24946D01*
X24300Y-24946D01*
X24342Y-24960D01*
X24371Y-24989D01*
X24385Y-25017D01*
X24400Y-25075D01*
X24400Y-25117D01*
X24385Y-25175D01*
X24371Y-25203D01*
X24342Y-25232D01*
X24300Y-25246D01*
X24228Y-25246D01*
X24685Y-25246D02*
X24514Y-25246D01*
X24600Y-25246D02*
X24600Y-24946D01*
X24571Y-24989D01*
X24542Y-25017D01*
X24514Y-25032D01*
X23150Y-22321D02*
X23050Y-22178D01*
X22978Y-22321D02*
X22978Y-22021D01*
X23092Y-22021D01*
X23121Y-22035D01*
X23135Y-22050D01*
X23150Y-22078D01*
X23150Y-22121D01*
X23135Y-22150D01*
X23121Y-22164D01*
X23092Y-22178D01*
X22978Y-22178D01*
X23250Y-22021D02*
X23435Y-22021D01*
X23335Y-22135D01*
X23378Y-22135D01*
X23407Y-22150D01*
X23421Y-22164D01*
X23435Y-22192D01*
X23435Y-22264D01*
X23421Y-22292D01*
X23407Y-22307D01*
X23378Y-22321D01*
X23292Y-22321D01*
X23264Y-22307D01*
X23250Y-22292D01*
X28475Y-22321D02*
X28375Y-22178D01*
X28303Y-22321D02*
X28303Y-22021D01*
X28417Y-22021D01*
X28446Y-22035D01*
X28460Y-22050D01*
X28475Y-22078D01*
X28475Y-22121D01*
X28460Y-22150D01*
X28446Y-22164D01*
X28417Y-22178D01*
X28303Y-22178D01*
X28732Y-22121D02*
X28732Y-22321D01*
X28660Y-22007D02*
X28589Y-22221D01*
X28775Y-22221D01*
X24025Y-19621D02*
X23925Y-19478D01*
X23853Y-19621D02*
X23853Y-19321D01*
X23967Y-19321D01*
X23996Y-19335D01*
X24010Y-19350D01*
X24025Y-19378D01*
X24025Y-19421D01*
X24010Y-19450D01*
X23996Y-19464D01*
X23967Y-19478D01*
X23853Y-19478D01*
X24310Y-19621D02*
X24139Y-19621D01*
X24225Y-19621D02*
X24225Y-19321D01*
X24196Y-19364D01*
X24167Y-19392D01*
X24139Y-19407D01*
X25735Y-15514D02*
X25778Y-15528D01*
X25792Y-15542D01*
X25807Y-15571D01*
X25807Y-15614D01*
X25792Y-15642D01*
X25778Y-15657D01*
X25750Y-15671D01*
X25635Y-15671D01*
X25635Y-15371D01*
X25735Y-15371D01*
X25764Y-15385D01*
X25778Y-15400D01*
X25792Y-15428D01*
X25792Y-15457D01*
X25778Y-15485D01*
X25764Y-15500D01*
X25735Y-15514D01*
X25635Y-15514D01*
X25935Y-15557D02*
X26164Y-15557D01*
X26050Y-15671D02*
X26050Y-15442D01*
G54D15*
X33852Y-22400D02*
X33804Y-22376D01*
X33757Y-22328D01*
X33685Y-22257D01*
X33638Y-22233D01*
X33590Y-22233D01*
X33614Y-22352D02*
X33566Y-22328D01*
X33519Y-22280D01*
X33495Y-22185D01*
X33495Y-22019D01*
X33519Y-21923D01*
X33566Y-21876D01*
X33614Y-21852D01*
X33709Y-21852D01*
X33757Y-21876D01*
X33804Y-21923D01*
X33828Y-22019D01*
X33828Y-22185D01*
X33804Y-22280D01*
X33757Y-22328D01*
X33709Y-22352D01*
X33614Y-22352D01*
X34019Y-21900D02*
X34042Y-21876D01*
X34090Y-21852D01*
X34209Y-21852D01*
X34257Y-21876D01*
X34280Y-21900D01*
X34304Y-21947D01*
X34304Y-21995D01*
X34280Y-22066D01*
X33995Y-22352D01*
X34304Y-22352D01*
%LPC*%
G54D16*
X20325Y-22200D03*
G54D17*
X24075Y-23200D03*
X24075Y-21200D03*
G54D18*
X20425Y-22200D03*
G54D19*
X27340Y-10580D03*
X24520Y-10560D03*
G54D20*
X26100Y-18900D03*
G54D21*
X25450Y-19550D03*
X25450Y-18250D03*
X26750Y-18250D03*
X26750Y-19550D03*
G54D22*
X33400Y-18900D03*
X18400Y-18900D03*
G54D23*
X21000Y-14290D03*
X21000Y-16910D03*
G54D24*
X24650Y-21410D03*
X24650Y-22990D03*
X27100Y-22990D03*
X27100Y-21410D03*
G54D25*
X28600Y-18850D03*
X28600Y-20150D03*
G54D26*
X28290Y-24475D03*
X26710Y-24475D03*
X23710Y-24675D03*
X25290Y-24675D03*
G54D25*
X23800Y-22850D03*
X23800Y-21550D03*
X28000Y-21550D03*
X28000Y-22850D03*
X23250Y-18850D03*
X23250Y-20150D03*
G54D23*
X30800Y-14290D03*
X30800Y-16910D03*
G54D27*
X25900Y-16600D03*
G54D21*
X24900Y-16600D03*
X24050Y-16600D03*
X26900Y-16600D03*
X27750Y-16600D03*
G54D28*
X25900Y-27200D03*
G54D16*
X31450Y-22200D03*
G54D17*
X27700Y-21200D03*
X27700Y-23200D03*
G54D18*
X31350Y-22200D03*
G54D10*
G36*
X34242Y-15175D02*
X27890Y-15175D01*
X27890Y-17175D01*
X23900Y-17175D01*
X23900Y-15175D01*
X18373Y-15175D01*
X18355Y-14401D01*
X18523Y-14060D01*
X18740Y-13734D01*
X19023Y-13386D01*
X19184Y-13185D01*
X33080Y-13185D01*
X33222Y-13446D01*
X33419Y-13734D01*
X33662Y-14042D01*
X33856Y-14414D01*
X34035Y-14718D01*
X34164Y-15000D01*
X34242Y-15175D01*
X34242Y-15175D01*
G37*
G54D29*
X34242Y-15175D02*
X27890Y-15175D01*
X27890Y-17175D01*
X23900Y-17175D01*
X23900Y-15175D01*
X18373Y-15175D01*
X18355Y-14401D01*
X18523Y-14060D01*
X18740Y-13734D01*
X19023Y-13386D01*
X19184Y-13185D01*
X33080Y-13185D01*
X33222Y-13446D01*
X33419Y-13734D01*
X33662Y-14042D01*
X33856Y-14414D01*
X34035Y-14718D01*
X34164Y-15000D01*
X34242Y-15175D01*
G54D10*
G36*
X34999Y-17974D02*
X34990Y-19914D01*
X34602Y-21774D01*
X33906Y-23365D01*
X32871Y-24827D01*
X32209Y-25500D01*
X29490Y-25500D01*
X29495Y-18257D01*
X28609Y-17687D01*
X28605Y-16110D01*
X34629Y-16129D01*
X34999Y-17974D01*
X34999Y-17974D01*
G37*
G54D29*
X34999Y-17974D02*
X34990Y-19914D01*
X34602Y-21774D01*
X33906Y-23365D01*
X32871Y-24827D01*
X32209Y-25500D01*
X29490Y-25500D01*
X29495Y-18257D01*
X28609Y-17687D01*
X28605Y-16110D01*
X34629Y-16129D01*
X34999Y-17974D01*
G54D10*
G36*
X23195Y-17470D02*
X22245Y-18205D01*
X22240Y-25509D01*
X19581Y-25505D01*
X18693Y-24568D01*
X18117Y-23767D01*
X17725Y-23078D01*
X17038Y-21396D01*
X16750Y-19706D01*
X16779Y-17885D01*
X17210Y-15940D01*
X23195Y-15944D01*
X23195Y-17470D01*
X23195Y-17470D01*
G37*
G54D29*
X23195Y-17470D02*
X22245Y-18205D01*
X22240Y-25509D01*
X19581Y-25505D01*
X18693Y-24568D01*
X18117Y-23767D01*
X17725Y-23078D01*
X17038Y-21396D01*
X16750Y-19706D01*
X16779Y-17885D01*
X17210Y-15940D01*
X23195Y-15944D01*
X23195Y-17470D01*
G54D10*
G36*
X28550Y-23790D02*
X26540Y-23790D01*
X26320Y-23570D01*
X25310Y-23570D01*
X25310Y-22285D01*
X24800Y-22285D01*
X24810Y-21620D01*
X23250Y-21620D01*
X23250Y-20690D01*
X23880Y-20690D01*
X23880Y-18100D01*
X27940Y-18100D01*
X27940Y-20590D01*
X26989Y-20590D01*
X26850Y-20729D01*
X26850Y-20840D01*
X26440Y-20840D01*
X26440Y-21920D01*
X26440Y-22120D01*
X26990Y-22120D01*
X26990Y-22770D01*
X28550Y-22770D01*
X28550Y-23790D01*
X28550Y-23790D01*
G37*
G54D29*
X28550Y-23790D02*
X26540Y-23790D01*
X26320Y-23570D01*
X25310Y-23570D01*
X25310Y-22285D01*
X24800Y-22285D01*
X24810Y-21620D01*
X23250Y-21620D01*
X23250Y-20690D01*
X23880Y-20690D01*
X23880Y-18100D01*
X27940Y-18100D01*
X27940Y-20590D01*
X26989Y-20590D01*
X26850Y-20729D01*
X26850Y-20840D01*
X26440Y-20840D01*
X26440Y-21920D01*
X26440Y-22120D01*
X26990Y-22120D01*
X26990Y-22770D01*
X28550Y-22770D01*
X28550Y-23790D01*
M02*
