G04 (created by PCBNEW (2013-june-11)-stable) date Tue 21 Jul 2015 11:16:44 AM EDT*
%MOIN*%
G04 Gerber Fmt 3.4, Leading zero omitted, Abs format*
%FSLAX34Y34*%
G01*
G70*
G90*
G04 APERTURE LIST*
%ADD10C,0.00590551*%
%ADD11C,0.3*%
%ADD12R,0.17X0.17*%
%ADD13C,0.035*%
%ADD14C,0.25*%
%ADD15R,0.4X0.094*%
%ADD16C,0.016*%
%ADD17C,0.01*%
G04 APERTURE END LIST*
G54D10*
G54D11*
X20425Y-22200D03*
G54D12*
X26100Y-18900D03*
G54D13*
X25450Y-19550D03*
X25450Y-18250D03*
X26750Y-18250D03*
X26750Y-19550D03*
G54D14*
X33400Y-18900D03*
X18400Y-18900D03*
G54D15*
X25900Y-16600D03*
G54D13*
X24900Y-16600D03*
X24050Y-16600D03*
X26900Y-16600D03*
X27750Y-16600D03*
G54D11*
X31350Y-22200D03*
G54D13*
X26000Y-23325D03*
X26000Y-25950D03*
X28650Y-13500D03*
X29350Y-13500D03*
X30050Y-13500D03*
X30750Y-13500D03*
X31450Y-13500D03*
X32150Y-13500D03*
X32850Y-13500D03*
X23300Y-13500D03*
X22700Y-13500D03*
X22000Y-13500D03*
X21300Y-13500D03*
X20600Y-13500D03*
X19900Y-13500D03*
X19200Y-13500D03*
X28400Y-15000D03*
X33200Y-15000D03*
X32400Y-15000D03*
X31600Y-15000D03*
X30800Y-15000D03*
X30000Y-15000D03*
X29200Y-15000D03*
X18600Y-15000D03*
X23400Y-15000D03*
X22600Y-15000D03*
X21800Y-15000D03*
X21000Y-15000D03*
X20200Y-15000D03*
X19400Y-15000D03*
X23450Y-21950D03*
X24150Y-21950D03*
X24150Y-20650D03*
X23450Y-20850D03*
X27500Y-22450D03*
X28400Y-22450D03*
X28400Y-23700D03*
X27550Y-23700D03*
X23200Y-23325D03*
X23200Y-24675D03*
X18900Y-24500D03*
X19650Y-24500D03*
X20400Y-24500D03*
X21150Y-24500D03*
X21900Y-24500D03*
X17050Y-20750D03*
X16850Y-18900D03*
X17250Y-16150D03*
X18150Y-16150D03*
X18950Y-16150D03*
X19750Y-16150D03*
X20550Y-16150D03*
X21350Y-16150D03*
X22150Y-16150D03*
X23000Y-16100D03*
X18150Y-23600D03*
X17550Y-22400D03*
X34200Y-22200D03*
X32950Y-24500D03*
X33500Y-23800D03*
X34700Y-20700D03*
X34900Y-18900D03*
X30550Y-24500D03*
X31350Y-24500D03*
X32150Y-24500D03*
X29750Y-24450D03*
X34500Y-16300D03*
X33600Y-16300D03*
X32750Y-16300D03*
X31950Y-16300D03*
X31150Y-16300D03*
X30350Y-16300D03*
X29550Y-16300D03*
X28750Y-16300D03*
G54D16*
X26000Y-23325D02*
X26000Y-25950D01*
X28650Y-13500D02*
X29350Y-13500D01*
X30750Y-13500D02*
X30050Y-13500D01*
X32150Y-13500D02*
X31450Y-13500D01*
X23300Y-13500D02*
X22700Y-13500D01*
X21300Y-13500D02*
X22000Y-13500D01*
X19900Y-13500D02*
X20600Y-13500D01*
X31600Y-15000D02*
X32400Y-15000D01*
X30000Y-15000D02*
X30800Y-15000D01*
X29200Y-15000D02*
X28400Y-15000D01*
X23400Y-15000D02*
X22600Y-15000D01*
X21000Y-15000D02*
X21800Y-15000D01*
X19400Y-15000D02*
X20200Y-15000D01*
X24150Y-20650D02*
X24150Y-21950D01*
X28400Y-22450D02*
X27500Y-22450D01*
X27550Y-23700D02*
X28400Y-23700D01*
X23200Y-24675D02*
X23200Y-23325D01*
X18900Y-24500D02*
X19650Y-24500D01*
X20400Y-24500D02*
X21150Y-24500D01*
X18150Y-16150D02*
X17250Y-16150D01*
X16850Y-18900D02*
X17000Y-19100D01*
X17000Y-19100D02*
X17050Y-20750D01*
X19750Y-16150D02*
X18950Y-16150D01*
X21350Y-16150D02*
X20550Y-16150D01*
X23000Y-16100D02*
X22150Y-16150D01*
X17550Y-22400D02*
X18150Y-23000D01*
X18150Y-23000D02*
X18150Y-23600D01*
X32950Y-24500D02*
X33500Y-23800D01*
X34200Y-22200D02*
X34538Y-21507D01*
X34538Y-21507D02*
X34700Y-20700D01*
X34900Y-18900D02*
X34600Y-18500D01*
X29800Y-24500D02*
X29750Y-24450D01*
X29800Y-24500D02*
X30550Y-24500D01*
X31350Y-24500D02*
X32150Y-24500D01*
X34600Y-18500D02*
X34500Y-16300D01*
X31950Y-16300D02*
X32750Y-16300D01*
X30350Y-16300D02*
X31150Y-16300D01*
X28750Y-16300D02*
X29550Y-16300D01*
G54D10*
G36*
X34210Y-15150D02*
X27850Y-15150D01*
X27850Y-17050D01*
X23950Y-17050D01*
X23950Y-15150D01*
X17564Y-15150D01*
X17851Y-14480D01*
X18862Y-13003D01*
X20141Y-11751D01*
X21638Y-10772D01*
X23297Y-10101D01*
X25055Y-9766D01*
X26844Y-9779D01*
X28597Y-10138D01*
X30246Y-10832D01*
X31729Y-11832D01*
X32990Y-13102D01*
X33980Y-14592D01*
X34210Y-15150D01*
X34210Y-15150D01*
G37*
G54D17*
X34210Y-15150D02*
X27850Y-15150D01*
X27850Y-17050D01*
X23950Y-17050D01*
X23950Y-15150D01*
X17564Y-15150D01*
X17851Y-14480D01*
X18862Y-13003D01*
X20141Y-11751D01*
X21638Y-10772D01*
X23297Y-10101D01*
X25055Y-9766D01*
X26844Y-9779D01*
X28597Y-10138D01*
X30246Y-10832D01*
X31729Y-11832D01*
X32990Y-13102D01*
X33980Y-14592D01*
X34210Y-15150D01*
G54D10*
G36*
X35010Y-19802D02*
X34984Y-20035D01*
X34585Y-21790D01*
X33857Y-23425D01*
X32826Y-24887D01*
X31530Y-26121D01*
X30019Y-27080D01*
X29500Y-27281D01*
X29500Y-18221D01*
X28600Y-17671D01*
X28600Y-16100D01*
X34619Y-16141D01*
X34662Y-16247D01*
X35010Y-18002D01*
X35010Y-19802D01*
X35010Y-19802D01*
G37*
G54D17*
X35010Y-19802D02*
X34984Y-20035D01*
X34585Y-21790D01*
X33857Y-23425D01*
X32826Y-24887D01*
X31530Y-26121D01*
X30019Y-27080D01*
X29500Y-27281D01*
X29500Y-18221D01*
X28600Y-17671D01*
X28600Y-16100D01*
X34619Y-16141D01*
X34662Y-16247D01*
X35010Y-18002D01*
X35010Y-19802D01*
G54D10*
G36*
X23200Y-17474D02*
X22250Y-18174D01*
X22250Y-27265D01*
X21413Y-26900D01*
X19943Y-25878D01*
X18701Y-24591D01*
X17731Y-23087D01*
X17073Y-21424D01*
X16750Y-19664D01*
X16775Y-17875D01*
X17147Y-16124D01*
X17222Y-15950D01*
X23200Y-15950D01*
X23200Y-17474D01*
X23200Y-17474D01*
G37*
G54D17*
X23200Y-17474D02*
X22250Y-18174D01*
X22250Y-27265D01*
X21413Y-26900D01*
X19943Y-25878D01*
X18701Y-24591D01*
X17731Y-23087D01*
X17073Y-21424D01*
X16750Y-19664D01*
X16775Y-17875D01*
X17147Y-16124D01*
X17222Y-15950D01*
X23200Y-15950D01*
X23200Y-17474D01*
G54D10*
G36*
X28550Y-27650D02*
X28351Y-27727D01*
X26589Y-28038D01*
X26100Y-28027D01*
X26129Y-28022D01*
X26285Y-27962D01*
X26425Y-27873D01*
X26546Y-27758D01*
X26642Y-27621D01*
X26710Y-27469D01*
X26747Y-27307D01*
X26750Y-27116D01*
X26717Y-26953D01*
X26654Y-26799D01*
X26561Y-26660D01*
X26444Y-26541D01*
X26306Y-26448D01*
X26152Y-26384D01*
X25989Y-26350D01*
X25822Y-26349D01*
X25658Y-26380D01*
X25504Y-26443D01*
X25364Y-26534D01*
X25245Y-26650D01*
X25151Y-26788D01*
X25085Y-26941D01*
X25051Y-27104D01*
X25048Y-27271D01*
X25078Y-27435D01*
X25140Y-27590D01*
X25230Y-27730D01*
X25346Y-27850D01*
X25483Y-27945D01*
X25636Y-28012D01*
X25665Y-28018D01*
X24800Y-28000D01*
X23250Y-27659D01*
X23250Y-25300D01*
X23250Y-25097D01*
X23314Y-25086D01*
X23392Y-25056D01*
X23462Y-25011D01*
X23523Y-24954D01*
X23571Y-24885D01*
X23605Y-24809D01*
X23623Y-24728D01*
X23625Y-24633D01*
X23608Y-24551D01*
X23577Y-24474D01*
X23530Y-24405D01*
X23530Y-24404D01*
X23530Y-23594D01*
X23571Y-23535D01*
X23605Y-23459D01*
X23623Y-23378D01*
X23625Y-23283D01*
X23608Y-23201D01*
X23577Y-23124D01*
X23530Y-23055D01*
X23472Y-22995D01*
X23403Y-22949D01*
X23326Y-22917D01*
X23250Y-22901D01*
X23250Y-18387D01*
X24207Y-18100D01*
X27643Y-18100D01*
X28550Y-18338D01*
X28550Y-25300D01*
X28550Y-27650D01*
X28550Y-27650D01*
G37*
G54D17*
X28550Y-27650D02*
X28351Y-27727D01*
X26589Y-28038D01*
X26100Y-28027D01*
X26129Y-28022D01*
X26285Y-27962D01*
X26425Y-27873D01*
X26546Y-27758D01*
X26642Y-27621D01*
X26710Y-27469D01*
X26747Y-27307D01*
X26750Y-27116D01*
X26717Y-26953D01*
X26654Y-26799D01*
X26561Y-26660D01*
X26444Y-26541D01*
X26306Y-26448D01*
X26152Y-26384D01*
X25989Y-26350D01*
X25822Y-26349D01*
X25658Y-26380D01*
X25504Y-26443D01*
X25364Y-26534D01*
X25245Y-26650D01*
X25151Y-26788D01*
X25085Y-26941D01*
X25051Y-27104D01*
X25048Y-27271D01*
X25078Y-27435D01*
X25140Y-27590D01*
X25230Y-27730D01*
X25346Y-27850D01*
X25483Y-27945D01*
X25636Y-28012D01*
X25665Y-28018D01*
X24800Y-28000D01*
X23250Y-27659D01*
X23250Y-25300D01*
X23250Y-25097D01*
X23314Y-25086D01*
X23392Y-25056D01*
X23462Y-25011D01*
X23523Y-24954D01*
X23571Y-24885D01*
X23605Y-24809D01*
X23623Y-24728D01*
X23625Y-24633D01*
X23608Y-24551D01*
X23577Y-24474D01*
X23530Y-24405D01*
X23530Y-24404D01*
X23530Y-23594D01*
X23571Y-23535D01*
X23605Y-23459D01*
X23623Y-23378D01*
X23625Y-23283D01*
X23608Y-23201D01*
X23577Y-23124D01*
X23530Y-23055D01*
X23472Y-22995D01*
X23403Y-22949D01*
X23326Y-22917D01*
X23250Y-22901D01*
X23250Y-18387D01*
X24207Y-18100D01*
X27643Y-18100D01*
X28550Y-18338D01*
X28550Y-25300D01*
X28550Y-27650D01*
M02*
