G04 (created by PCBNEW (2013-june-11)-stable) date Tue 21 Jul 2015 11:16:44 AM EDT*
%MOIN*%
G04 Gerber Fmt 3.4, Leading zero omitted, Abs format*
%FSLAX34Y34*%
G01*
G70*
G90*
G04 APERTURE LIST*
%ADD10C,0.00590551*%
%ADD11R,0.37X0.44*%
%ADD12R,0.14X0.09*%
%ADD13C,0.32*%
%ADD14R,0.1X0.15*%
%ADD15R,0.19X0.19*%
%ADD16C,0.055*%
%ADD17C,0.27*%
%ADD18R,0.465X0.114*%
%ADD19R,0.1066X0.0909*%
%ADD20R,0.1X0.08*%
%ADD21R,0.0909X0.1066*%
%ADD22R,0.42X0.114*%
%ADD23C,0.14*%
%ADD24C,0.01*%
G04 APERTURE END LIST*
G54D10*
G54D11*
X20325Y-22200D03*
G54D12*
X24075Y-23200D03*
X24075Y-21200D03*
G54D13*
X20425Y-22200D03*
G54D14*
X27340Y-10580D03*
X24520Y-10560D03*
G54D15*
X26100Y-18900D03*
G54D16*
X25450Y-19550D03*
X25450Y-18250D03*
X26750Y-18250D03*
X26750Y-19550D03*
G54D17*
X33400Y-18900D03*
X18400Y-18900D03*
G54D18*
X21000Y-14290D03*
X21000Y-16910D03*
G54D19*
X24650Y-21410D03*
X24650Y-22990D03*
X27100Y-22990D03*
X27100Y-21410D03*
G54D20*
X28600Y-18850D03*
X28600Y-20150D03*
G54D21*
X28290Y-24475D03*
X26710Y-24475D03*
X23710Y-24675D03*
X25290Y-24675D03*
G54D20*
X23800Y-22850D03*
X23800Y-21550D03*
X28000Y-21550D03*
X28000Y-22850D03*
X23250Y-18850D03*
X23250Y-20150D03*
G54D18*
X30800Y-14290D03*
X30800Y-16910D03*
G54D22*
X25900Y-16600D03*
G54D16*
X24900Y-16600D03*
X24050Y-16600D03*
X26900Y-16600D03*
X27750Y-16600D03*
G54D23*
X25900Y-27200D03*
G54D11*
X31450Y-22200D03*
G54D12*
X27700Y-21200D03*
X27700Y-23200D03*
G54D13*
X31350Y-22200D03*
G54D10*
G36*
X34242Y-15175D02*
X27890Y-15175D01*
X27890Y-17175D01*
X23900Y-17175D01*
X23900Y-15175D01*
X18373Y-15175D01*
X18355Y-14401D01*
X18523Y-14060D01*
X18740Y-13734D01*
X19023Y-13386D01*
X19184Y-13185D01*
X33080Y-13185D01*
X33222Y-13446D01*
X33419Y-13734D01*
X33662Y-14042D01*
X33856Y-14414D01*
X34035Y-14718D01*
X34164Y-15000D01*
X34242Y-15175D01*
X34242Y-15175D01*
G37*
G54D24*
X34242Y-15175D02*
X27890Y-15175D01*
X27890Y-17175D01*
X23900Y-17175D01*
X23900Y-15175D01*
X18373Y-15175D01*
X18355Y-14401D01*
X18523Y-14060D01*
X18740Y-13734D01*
X19023Y-13386D01*
X19184Y-13185D01*
X33080Y-13185D01*
X33222Y-13446D01*
X33419Y-13734D01*
X33662Y-14042D01*
X33856Y-14414D01*
X34035Y-14718D01*
X34164Y-15000D01*
X34242Y-15175D01*
G54D10*
G36*
X34999Y-17974D02*
X34990Y-19914D01*
X34602Y-21774D01*
X33906Y-23365D01*
X32871Y-24827D01*
X32209Y-25500D01*
X29490Y-25500D01*
X29495Y-18257D01*
X28609Y-17687D01*
X28605Y-16110D01*
X34629Y-16129D01*
X34999Y-17974D01*
X34999Y-17974D01*
G37*
G54D24*
X34999Y-17974D02*
X34990Y-19914D01*
X34602Y-21774D01*
X33906Y-23365D01*
X32871Y-24827D01*
X32209Y-25500D01*
X29490Y-25500D01*
X29495Y-18257D01*
X28609Y-17687D01*
X28605Y-16110D01*
X34629Y-16129D01*
X34999Y-17974D01*
G54D10*
G36*
X23195Y-17470D02*
X22245Y-18205D01*
X22240Y-25509D01*
X19581Y-25505D01*
X18693Y-24568D01*
X18117Y-23767D01*
X17725Y-23078D01*
X17038Y-21396D01*
X16750Y-19706D01*
X16779Y-17885D01*
X17210Y-15940D01*
X23195Y-15944D01*
X23195Y-17470D01*
X23195Y-17470D01*
G37*
G54D24*
X23195Y-17470D02*
X22245Y-18205D01*
X22240Y-25509D01*
X19581Y-25505D01*
X18693Y-24568D01*
X18117Y-23767D01*
X17725Y-23078D01*
X17038Y-21396D01*
X16750Y-19706D01*
X16779Y-17885D01*
X17210Y-15940D01*
X23195Y-15944D01*
X23195Y-17470D01*
G54D10*
G36*
X28550Y-23790D02*
X26540Y-23790D01*
X26320Y-23570D01*
X25310Y-23570D01*
X25310Y-22285D01*
X24800Y-22285D01*
X24810Y-21620D01*
X23250Y-21620D01*
X23250Y-20690D01*
X23880Y-20690D01*
X23880Y-18100D01*
X27940Y-18100D01*
X27940Y-20590D01*
X26989Y-20590D01*
X26850Y-20729D01*
X26850Y-20840D01*
X26440Y-20840D01*
X26440Y-21920D01*
X26440Y-22120D01*
X26990Y-22120D01*
X26990Y-22770D01*
X28550Y-22770D01*
X28550Y-23790D01*
X28550Y-23790D01*
G37*
G54D24*
X28550Y-23790D02*
X26540Y-23790D01*
X26320Y-23570D01*
X25310Y-23570D01*
X25310Y-22285D01*
X24800Y-22285D01*
X24810Y-21620D01*
X23250Y-21620D01*
X23250Y-20690D01*
X23880Y-20690D01*
X23880Y-18100D01*
X27940Y-18100D01*
X27940Y-20590D01*
X26989Y-20590D01*
X26850Y-20729D01*
X26850Y-20840D01*
X26440Y-20840D01*
X26440Y-21920D01*
X26440Y-22120D01*
X26990Y-22120D01*
X26990Y-22770D01*
X28550Y-22770D01*
X28550Y-23790D01*
M02*
