M48
;DRILL file {Pcbnew (2013-june-11)-stable} date Tue 21 Jul 2015 11:16:33 AM EDT
;FORMAT={-:-/ absolute / inch / decimal}
FMAT,2
INCH,TZ
T1C0.014
T2C0.051
T3C0.116
T4C0.250
%
G90
G05
M72
T1
X1.685Y-1.89
X1.705Y-2.075
X1.725Y-1.615
X1.755Y-2.24
X1.815Y-1.615
X1.815Y-2.36
X1.86Y-1.5
X1.89Y-2.45
X1.895Y-1.615
X1.92Y-1.35
X1.94Y-1.5
X1.965Y-2.45
X1.975Y-1.615
X1.99Y-1.35
X2.02Y-1.5
X2.04Y-2.45
X2.055Y-1.615
X2.06Y-1.35
X2.1Y-1.5
X2.115Y-2.45
X2.13Y-1.35
X2.135Y-1.615
X2.18Y-1.5
X2.19Y-2.45
X2.2Y-1.35
X2.215Y-1.615
X2.26Y-1.5
X2.27Y-1.35
X2.3Y-1.61
X2.32Y-2.3325
X2.32Y-2.4675
X2.33Y-1.35
X2.34Y-1.5
X2.345Y-2.085
X2.345Y-2.195
X2.405Y-1.66
X2.415Y-2.065
X2.415Y-2.195
X2.49Y-1.66
X2.545Y-1.825
X2.545Y-1.955
X2.6Y-2.3325
X2.6Y-2.595
X2.675Y-1.825
X2.675Y-1.955
X2.69Y-1.66
X2.75Y-2.245
X2.755Y-2.37
X2.775Y-1.66
X2.84Y-1.5
X2.84Y-2.245
X2.84Y-2.37
X2.865Y-1.35
X2.875Y-1.63
X2.92Y-1.5
X2.935Y-1.35
X2.955Y-1.63
X2.975Y-2.445
X3.Y-1.5
X3.005Y-1.35
X3.035Y-1.63
X3.055Y-2.45
X3.075Y-1.35
X3.08Y-1.5
X3.115Y-1.63
X3.135Y-2.45
X3.145Y-1.35
X3.16Y-1.5
X3.195Y-1.63
X3.215Y-1.35
X3.215Y-2.45
X3.24Y-1.5
X3.275Y-1.63
X3.285Y-1.35
X3.295Y-2.45
X3.32Y-1.5
X3.35Y-2.38
X3.36Y-1.63
X3.42Y-2.22
X3.45Y-1.63
X3.47Y-2.07
X3.49Y-1.89
T3
X1.84Y-1.89
X3.34Y-1.89
T4
X2.0425Y-2.22
X3.135Y-2.22
T2
X2.5405Y-1.66G85X2.6395Y-1.66
G05
X2.61Y-1.8405G85X2.61Y-1.9395
G05
T0
M30
