%FSLAX34Y34*%
G04 Gerber Fmt 3.4, Leading zero omitted, Abs format*
G04 (created by PCBNEW (2014-jan-25)-product) date Wed 23 Sep 2015 02:14:26 PM EDT*
%MOIN*%
G01*
G70*
G90*
G04 APERTURE LIST*
%ADD10C,0.005906*%
%ADD11C,0.032000*%
%ADD12C,0.140000*%
%ADD13C,0.270000*%
G04 APERTURE END LIST*
G54D10*
G54D11*
X33133Y-23403D03*
X33133Y-22203D03*
X33133Y-22603D03*
X33133Y-23003D03*
X33133Y-21803D03*
X33133Y-21403D03*
X33133Y-21003D03*
X32731Y-21000D03*
X32731Y-21400D03*
X32731Y-21800D03*
X32731Y-23000D03*
X32731Y-22600D03*
X32731Y-22200D03*
X32731Y-23400D03*
X30730Y-23400D03*
X32330Y-23400D03*
X31130Y-23400D03*
X31930Y-23400D03*
X31530Y-23400D03*
X30730Y-22200D03*
X32330Y-22200D03*
X31130Y-22200D03*
X31930Y-22200D03*
X31530Y-22200D03*
X31530Y-22600D03*
X31930Y-22600D03*
X31130Y-22600D03*
X32330Y-22600D03*
X30730Y-22600D03*
X31530Y-23000D03*
X31930Y-23000D03*
X31130Y-23000D03*
X32330Y-23000D03*
X30730Y-23000D03*
X30730Y-21800D03*
X32330Y-21800D03*
X31130Y-21800D03*
X31930Y-21800D03*
X31530Y-21800D03*
X30730Y-21400D03*
X32330Y-21400D03*
X31130Y-21400D03*
X31930Y-21400D03*
X31530Y-21400D03*
X31530Y-21000D03*
X31930Y-21000D03*
X31130Y-21000D03*
X32330Y-21000D03*
X30730Y-21000D03*
X18617Y-21000D03*
X18617Y-22200D03*
X18617Y-21800D03*
X18617Y-21400D03*
X18617Y-22600D03*
X18617Y-23000D03*
X18617Y-23400D03*
X19023Y-23400D03*
X19023Y-23000D03*
X19023Y-22600D03*
X19023Y-21400D03*
X19023Y-21800D03*
X19023Y-22200D03*
X19023Y-21000D03*
X21025Y-21000D03*
X19425Y-21000D03*
X20625Y-21000D03*
X19825Y-21000D03*
X20225Y-21000D03*
X21025Y-22200D03*
X19425Y-22200D03*
X20625Y-22200D03*
X19825Y-22200D03*
X20225Y-22200D03*
X20225Y-21800D03*
X19825Y-21800D03*
X20625Y-21800D03*
X19425Y-21800D03*
X21025Y-21800D03*
X20225Y-21400D03*
X19825Y-21400D03*
X20625Y-21400D03*
X19425Y-21400D03*
X21025Y-21400D03*
X21025Y-22600D03*
X19425Y-22600D03*
X20625Y-22600D03*
X19825Y-22600D03*
X20225Y-22600D03*
X21025Y-23000D03*
X19425Y-23000D03*
X20625Y-23000D03*
X19825Y-23000D03*
X20225Y-23000D03*
X20225Y-23400D03*
X19825Y-23400D03*
X20625Y-23400D03*
X19425Y-23400D03*
X21025Y-23400D03*
G54D12*
X25905Y-13185D03*
G54D13*
X33400Y-18900D03*
X18400Y-18900D03*
G54D12*
X25905Y-27120D03*
M02*
