M48
;DRILL file {Pcbnew (2014-jan-25)-product} date Wed 23 Sep 2015 02:14:40 PM EDT
;FORMAT={-:-/ absolute / inch / decimal}
FMAT,2
INCH,TZ
T1C0.014
T2C0.020
T3C0.051
T4C0.116
%
G90
G05
M72
T1
X1.694Y-1.835
X1.6985Y-1.956
X1.7095Y-1.7315
X1.7145Y-2.0595
X1.737Y-1.615
X1.737Y-2.15
X1.767Y-2.234
X1.802Y-2.315
X1.815Y-1.615
X1.836Y-2.382
X1.86Y-1.5
X1.89Y-2.448
X1.895Y-1.615
X1.92Y-1.35
X1.94Y-1.5
X1.946Y-2.509
X1.975Y-1.615
X1.99Y-1.35
X2.007Y-2.569
X2.02Y-1.5
X2.055Y-1.615
X2.06Y-1.35
X2.07Y-2.6205
X2.1Y-1.5
X2.13Y-1.35
X2.135Y-1.615
X2.1515Y-2.664
X2.18Y-1.5
X2.1995Y-1.878
X2.2Y-1.35
X2.2Y-1.969
X2.2005Y-2.4735
X2.2035Y-2.3805
X2.2085Y-1.789
X2.214Y-2.577
X2.215Y-1.615
X2.22Y-2.7075
X2.26Y-1.5
X2.27Y-1.35
X2.273Y-1.755
X2.3Y-1.61
X2.305Y-1.687
X2.3115Y-2.7435
X2.316Y-2.5875
X2.33Y-1.35
X2.3365Y-2.195
X2.3375Y-2.086
X2.34Y-1.5
X2.394Y-2.766
X2.405Y-1.66
X2.409Y-2.586
X2.419Y-2.0855
X2.419Y-2.195
X2.46Y-2.67
X2.4615Y-2.757
X2.49Y-1.66
X2.504Y-2.584
X2.545Y-1.825
X2.545Y-1.955
X2.629Y-2.448
X2.674Y-2.582
X2.675Y-1.825
X2.675Y-1.955
X2.69Y-1.66
X2.711Y-2.77
X2.725Y-2.668
X2.743Y-2.58
X2.75Y-2.245
X2.755Y-2.37
X2.775Y-1.66
X2.811Y-2.751
X2.815Y-2.579
X2.84Y-1.5
X2.84Y-2.245
X2.84Y-2.37
X2.865Y-1.35
X2.8755Y-1.7025
X2.876Y-1.627
X2.889Y-2.578
X2.896Y-2.729
X2.91Y-1.776
X2.92Y-1.5
X2.935Y-1.35
X2.95Y-1.627
X2.967Y-1.8195
X2.968Y-2.575
X2.969Y-2.474
X2.97Y-1.89
X2.973Y-2.371
X2.975Y-1.9775
X2.979Y-2.694
X3.Y-1.5
X3.005Y-1.35
X3.03Y-1.627
X3.051Y-2.655
X3.075Y-1.35
X3.08Y-1.5
X3.08Y-1.691
X3.11Y-1.627
X3.118Y-2.611
X3.145Y-1.35
X3.16Y-1.5
X3.181Y-2.56
X3.19Y-1.627
X3.215Y-1.35
X3.24Y-1.5
X3.246Y-2.5
X3.27Y-1.627
X3.285Y-1.35
X3.308Y-2.427
X3.32Y-1.5
X3.35Y-1.627
X3.36Y-2.353
X3.396Y-2.271
X3.427Y-2.186
X3.43Y-1.627
X3.457Y-2.094
X3.462Y-1.706
X3.474Y-1.995
X3.481Y-1.791
X3.484Y-1.884
T2
X1.8618Y-2.1
X1.8618Y-2.14
X1.8618Y-2.18
X1.8618Y-2.22
X1.8618Y-2.26
X1.8618Y-2.3
X1.8618Y-2.34
X1.9023Y-2.1
X1.9023Y-2.14
X1.9023Y-2.18
X1.9023Y-2.22
X1.9023Y-2.26
X1.9023Y-2.3
X1.9023Y-2.34
X1.9425Y-2.1
X1.9425Y-2.14
X1.9425Y-2.18
X1.9425Y-2.22
X1.9425Y-2.26
X1.9425Y-2.3
X1.9425Y-2.34
X1.9825Y-2.1
X1.9825Y-2.14
X1.9825Y-2.18
X1.9825Y-2.22
X1.9825Y-2.26
X1.9825Y-2.3
X1.9825Y-2.34
X2.0225Y-2.1
X2.0225Y-2.14
X2.0225Y-2.18
X2.0225Y-2.22
X2.0225Y-2.26
X2.0225Y-2.3
X2.0225Y-2.34
X2.0625Y-2.1
X2.0625Y-2.14
X2.0625Y-2.18
X2.0625Y-2.22
X2.0625Y-2.26
X2.0625Y-2.3
X2.0625Y-2.34
X2.1025Y-2.1
X2.1025Y-2.14
X2.1025Y-2.18
X2.1025Y-2.22
X2.1025Y-2.26
X2.1025Y-2.3
X2.1025Y-2.34
X3.073Y-2.1
X3.073Y-2.14
X3.073Y-2.18
X3.073Y-2.22
X3.073Y-2.26
X3.073Y-2.3
X3.073Y-2.34
X3.113Y-2.1
X3.113Y-2.14
X3.113Y-2.18
X3.113Y-2.22
X3.113Y-2.26
X3.113Y-2.3
X3.113Y-2.34
X3.153Y-2.1
X3.153Y-2.14
X3.153Y-2.18
X3.153Y-2.22
X3.153Y-2.26
X3.153Y-2.3
X3.153Y-2.34
X3.193Y-2.1
X3.193Y-2.14
X3.193Y-2.18
X3.193Y-2.22
X3.193Y-2.26
X3.193Y-2.3
X3.193Y-2.34
X3.233Y-2.1
X3.233Y-2.14
X3.233Y-2.18
X3.233Y-2.22
X3.233Y-2.26
X3.233Y-2.3
X3.233Y-2.34
X3.2732Y-2.1
X3.2732Y-2.14
X3.2732Y-2.18
X3.2732Y-2.22
X3.2732Y-2.26
X3.2732Y-2.3
X3.2732Y-2.34
X3.3133Y-2.1004
X3.3133Y-2.1404
X3.3133Y-2.1804
X3.3133Y-2.2204
X3.3133Y-2.2604
X3.3133Y-2.3004
X3.3133Y-2.3404
T4
X1.84Y-1.89
X3.34Y-1.89
T3
X2.5405Y-1.66G85X2.6395Y-1.66
G05
X2.61Y-1.8405G85X2.61Y-1.9395
G05
T0
M30
