%FSLAX34Y34*%
G04 Gerber Fmt 3.4, Leading zero omitted, Abs format*
G04 (created by PCBNEW (2014-jan-25)-product) date Wed 23 Sep 2015 02:14:26 PM EDT*
%MOIN*%
G01*
G70*
G90*
G04 APERTURE LIST*
%ADD10C,0.005906*%
%ADD11C,0.030000*%
%ADD12R,0.170000X0.170000*%
%ADD13C,0.035000*%
%ADD14C,0.250000*%
%ADD15R,0.400000X0.094000*%
%ADD16C,0.016000*%
%ADD17C,0.010000*%
G04 APERTURE END LIST*
G54D10*
G54D11*
X33133Y-23403D03*
X33133Y-22203D03*
X33133Y-22603D03*
X33133Y-23003D03*
X33133Y-21803D03*
X33133Y-21403D03*
X33133Y-21003D03*
X32731Y-21000D03*
X32731Y-21400D03*
X32731Y-21800D03*
X32731Y-23000D03*
X32731Y-22600D03*
X32731Y-22200D03*
X32731Y-23400D03*
X30730Y-23400D03*
X32330Y-23400D03*
X31130Y-23400D03*
X31930Y-23400D03*
X31530Y-23400D03*
X30730Y-22200D03*
X32330Y-22200D03*
X31130Y-22200D03*
X31930Y-22200D03*
X31530Y-22200D03*
X31530Y-22600D03*
X31930Y-22600D03*
X31130Y-22600D03*
X32330Y-22600D03*
X30730Y-22600D03*
X31530Y-23000D03*
X31930Y-23000D03*
X31130Y-23000D03*
X32330Y-23000D03*
X30730Y-23000D03*
X30730Y-21800D03*
X32330Y-21800D03*
X31130Y-21800D03*
X31930Y-21800D03*
X31530Y-21800D03*
X30730Y-21400D03*
X32330Y-21400D03*
X31130Y-21400D03*
X31930Y-21400D03*
X31530Y-21400D03*
X31530Y-21000D03*
X31930Y-21000D03*
X31130Y-21000D03*
X32330Y-21000D03*
X30730Y-21000D03*
X18617Y-21000D03*
X18617Y-22200D03*
X18617Y-21800D03*
X18617Y-21400D03*
X18617Y-22600D03*
X18617Y-23000D03*
X18617Y-23400D03*
X19023Y-23400D03*
X19023Y-23000D03*
X19023Y-22600D03*
X19023Y-21400D03*
X19023Y-21800D03*
X19023Y-22200D03*
X19023Y-21000D03*
X21025Y-21000D03*
X19425Y-21000D03*
X20625Y-21000D03*
X19825Y-21000D03*
X20225Y-21000D03*
X21025Y-22200D03*
X19425Y-22200D03*
X20625Y-22200D03*
X19825Y-22200D03*
X20225Y-22200D03*
X20225Y-21800D03*
X19825Y-21800D03*
X20625Y-21800D03*
X19425Y-21800D03*
X21025Y-21800D03*
X20225Y-21400D03*
X19825Y-21400D03*
X20625Y-21400D03*
X19425Y-21400D03*
X21025Y-21400D03*
X21025Y-22600D03*
X19425Y-22600D03*
X20625Y-22600D03*
X19825Y-22600D03*
X20225Y-22600D03*
X21025Y-23000D03*
X19425Y-23000D03*
X20625Y-23000D03*
X19825Y-23000D03*
X20225Y-23000D03*
X20225Y-23400D03*
X19825Y-23400D03*
X20625Y-23400D03*
X19425Y-23400D03*
X21025Y-23400D03*
G54D12*
X26100Y-18900D03*
G54D13*
X25450Y-19550D03*
X25450Y-18250D03*
X26750Y-18250D03*
X26750Y-19550D03*
G54D14*
X33400Y-18900D03*
X18400Y-18900D03*
G54D15*
X25900Y-16600D03*
G54D13*
X24900Y-16600D03*
X24050Y-16600D03*
X26900Y-16600D03*
X27750Y-16600D03*
X28650Y-13500D03*
X29350Y-13500D03*
X30050Y-13500D03*
X30750Y-13500D03*
X31450Y-13500D03*
X32150Y-13500D03*
X32850Y-13500D03*
X23300Y-13500D03*
X22700Y-13500D03*
X22000Y-13500D03*
X21300Y-13500D03*
X20600Y-13500D03*
X19900Y-13500D03*
X19200Y-13500D03*
X28400Y-15000D03*
X33200Y-15000D03*
X32400Y-15000D03*
X31600Y-15000D03*
X30800Y-15000D03*
X30000Y-15000D03*
X29200Y-15000D03*
X18600Y-15000D03*
X23400Y-15000D03*
X22600Y-15000D03*
X21800Y-15000D03*
X21000Y-15000D03*
X20200Y-15000D03*
X19400Y-15000D03*
X23365Y-21950D03*
X24190Y-21950D03*
X24190Y-20855D03*
X23375Y-20860D03*
X27500Y-22450D03*
X28400Y-22450D03*
X28400Y-23700D03*
X27550Y-23700D03*
X26290Y-24480D03*
X17370Y-16150D03*
X18150Y-16150D03*
X18950Y-16150D03*
X19750Y-16150D03*
X20550Y-16150D03*
X21350Y-16150D03*
X22150Y-16150D03*
X23000Y-16100D03*
X17095Y-17315D03*
X16940Y-18350D03*
X16985Y-19560D03*
X17145Y-20595D03*
X17370Y-21500D03*
X17670Y-22340D03*
X18020Y-23150D03*
X18360Y-23820D03*
X18900Y-24480D03*
X19460Y-25090D03*
X20070Y-25690D03*
X20700Y-26205D03*
X21515Y-26640D03*
X22200Y-27075D03*
X23115Y-27435D03*
X23940Y-27660D03*
X24615Y-27570D03*
X24600Y-26700D03*
X24090Y-25860D03*
X25040Y-25840D03*
X23160Y-25875D03*
X22140Y-25770D03*
X22005Y-24735D03*
X22035Y-23805D03*
X22000Y-19690D03*
X21995Y-18780D03*
X22085Y-17890D03*
X22730Y-17550D03*
X23050Y-16870D03*
X30800Y-16910D03*
X28755Y-17025D03*
X29100Y-17760D03*
X29670Y-18195D03*
X29700Y-18900D03*
X29750Y-19775D03*
X29730Y-23710D03*
X29690Y-24740D03*
X29680Y-25750D03*
X28890Y-25780D03*
X28150Y-25790D03*
X27430Y-25800D03*
X26740Y-25820D03*
X27250Y-26680D03*
X27110Y-27700D03*
X28110Y-27510D03*
X28960Y-27290D03*
X29790Y-26940D03*
X30510Y-26550D03*
X31180Y-26110D03*
X31810Y-25600D03*
X32460Y-25000D03*
X33080Y-24270D03*
X29500Y-16270D03*
X30300Y-16270D03*
X31100Y-16270D03*
X31900Y-16270D03*
X32700Y-16270D03*
X33500Y-16270D03*
X34300Y-16270D03*
X34620Y-17060D03*
X34810Y-17910D03*
X34840Y-18840D03*
X34740Y-19950D03*
X34570Y-20940D03*
X34270Y-21860D03*
X33960Y-22710D03*
X33600Y-23530D03*
X28760Y-16270D03*
G54D16*
X28650Y-13500D02*
X29350Y-13500D01*
X30750Y-13500D02*
X30050Y-13500D01*
X32150Y-13500D02*
X31450Y-13500D01*
X23300Y-13500D02*
X22700Y-13500D01*
X21300Y-13500D02*
X22000Y-13500D01*
X19900Y-13500D02*
X20600Y-13500D01*
X31600Y-15000D02*
X32400Y-15000D01*
X30000Y-15000D02*
X30800Y-15000D01*
X29200Y-15000D02*
X28400Y-15000D01*
X23400Y-15000D02*
X22600Y-15000D01*
X21000Y-15000D02*
X21800Y-15000D01*
X19400Y-15000D02*
X20200Y-15000D01*
X24190Y-20855D02*
X24190Y-21950D01*
X28400Y-22450D02*
X27500Y-22450D01*
X27550Y-23700D02*
X28400Y-23700D01*
X25050Y-25720D02*
X25050Y-25850D01*
X26290Y-24480D02*
X25050Y-25720D01*
X18150Y-16150D02*
X17370Y-16150D01*
X19750Y-16150D02*
X18950Y-16150D01*
X21350Y-16150D02*
X20550Y-16150D01*
X23000Y-16100D02*
X22150Y-16150D01*
X17250Y-16695D02*
X17095Y-17315D01*
X16940Y-18350D02*
X16970Y-18380D01*
X16970Y-18380D02*
X16985Y-19560D01*
X17145Y-20595D02*
X17175Y-20955D01*
X17175Y-20955D02*
X17370Y-21500D01*
X17670Y-22340D02*
X17790Y-22740D01*
X17790Y-22740D02*
X18020Y-23150D01*
X18360Y-23820D02*
X18720Y-24320D01*
X18720Y-24320D02*
X18900Y-24480D01*
X19460Y-25090D02*
X20070Y-25670D01*
X20070Y-25670D02*
X20070Y-25690D01*
X20700Y-26205D02*
X21070Y-26790D01*
X21070Y-26790D02*
X21515Y-26640D01*
X22200Y-27075D02*
X22650Y-27580D01*
X22650Y-27580D02*
X23115Y-27435D01*
X23940Y-27660D02*
X24130Y-27960D01*
X24130Y-27960D02*
X24615Y-27570D01*
X24600Y-26700D02*
X24610Y-26690D01*
X24610Y-26690D02*
X24090Y-25860D01*
X25040Y-25840D02*
X25020Y-25860D01*
X25020Y-25860D02*
X23160Y-25875D01*
X22140Y-25770D02*
X22110Y-25740D01*
X22110Y-25740D02*
X22005Y-24735D01*
X22035Y-23805D02*
X22015Y-23785D01*
X22015Y-23785D02*
X22000Y-19690D01*
X21995Y-18780D02*
X22085Y-18690D01*
X22085Y-18690D02*
X22085Y-17890D01*
X22730Y-17550D02*
X23050Y-17230D01*
X23050Y-17230D02*
X23050Y-16870D01*
X17370Y-16150D02*
X17250Y-16695D01*
X30810Y-16920D02*
X30825Y-16920D01*
X30800Y-16910D02*
X30810Y-16920D01*
X28755Y-17415D02*
X28755Y-17025D01*
X29100Y-17760D02*
X28755Y-17415D01*
X29670Y-18870D02*
X29670Y-18195D01*
X29700Y-18900D02*
X29670Y-18870D01*
X29730Y-23710D02*
X29750Y-19775D01*
X29680Y-25750D02*
X29690Y-24740D01*
X28165Y-25805D02*
X28890Y-25780D01*
X28150Y-25790D02*
X28165Y-25805D01*
X26755Y-25805D02*
X27430Y-25800D01*
X26740Y-25820D02*
X26755Y-25805D01*
X27125Y-27685D02*
X27250Y-26680D01*
X27110Y-27700D02*
X27125Y-27685D01*
X28335Y-27825D02*
X28110Y-27510D01*
X28960Y-27290D02*
X28335Y-27825D01*
X29840Y-27270D02*
X29790Y-26940D01*
X30510Y-26550D02*
X29840Y-27270D01*
X31395Y-26225D02*
X31180Y-26110D01*
X31810Y-25600D02*
X31395Y-26225D01*
X32460Y-24915D02*
X32460Y-25000D01*
X33080Y-24270D02*
X32460Y-24915D01*
X29500Y-16270D02*
X28760Y-16270D01*
X30300Y-16270D02*
X31100Y-16270D01*
X31900Y-16270D02*
X32700Y-16270D01*
X33500Y-16270D02*
X34300Y-16270D01*
X34620Y-17060D02*
X34935Y-16985D01*
X34935Y-16985D02*
X34810Y-17910D01*
X34840Y-18840D02*
X34825Y-18855D01*
X34825Y-18855D02*
X34740Y-19950D01*
X34570Y-20940D02*
X34385Y-21430D01*
X34385Y-21430D02*
X34270Y-21860D01*
X33960Y-22710D02*
X33660Y-23300D01*
X33660Y-23300D02*
X33600Y-23530D01*
G54D10*
G36*
X34228Y-15150D02*
X27850Y-15150D01*
X27850Y-17050D01*
X27055Y-17050D01*
X27055Y-13072D01*
X27011Y-12851D01*
X26925Y-12642D01*
X26800Y-12454D01*
X26641Y-12294D01*
X26454Y-12168D01*
X26246Y-12081D01*
X26025Y-12035D01*
X25800Y-12034D01*
X25578Y-12076D01*
X25369Y-12160D01*
X25180Y-12284D01*
X25019Y-12442D01*
X24892Y-12628D01*
X24803Y-12835D01*
X24756Y-13056D01*
X24753Y-13281D01*
X24794Y-13503D01*
X24877Y-13713D01*
X24999Y-13902D01*
X25156Y-14065D01*
X25341Y-14193D01*
X25547Y-14284D01*
X25768Y-14332D01*
X25993Y-14337D01*
X26215Y-14297D01*
X26426Y-14216D01*
X26616Y-14095D01*
X26779Y-13940D01*
X26909Y-13755D01*
X27001Y-13549D01*
X27051Y-13329D01*
X27055Y-13072D01*
X27055Y-17050D01*
X23950Y-17050D01*
X23950Y-15150D01*
X17532Y-15150D01*
X18320Y-13716D01*
X19470Y-12345D01*
X20865Y-11224D01*
X22451Y-10395D01*
X24167Y-9890D01*
X25950Y-9727D01*
X27729Y-9914D01*
X29439Y-10444D01*
X31013Y-11295D01*
X32392Y-12436D01*
X33523Y-13822D01*
X34228Y-15150D01*
X34228Y-15150D01*
G37*
G54D17*
X34228Y-15150D02*
X27850Y-15150D01*
X27850Y-17050D01*
X27055Y-17050D01*
X27055Y-13072D01*
X27011Y-12851D01*
X26925Y-12642D01*
X26800Y-12454D01*
X26641Y-12294D01*
X26454Y-12168D01*
X26246Y-12081D01*
X26025Y-12035D01*
X25800Y-12034D01*
X25578Y-12076D01*
X25369Y-12160D01*
X25180Y-12284D01*
X25019Y-12442D01*
X24892Y-12628D01*
X24803Y-12835D01*
X24756Y-13056D01*
X24753Y-13281D01*
X24794Y-13503D01*
X24877Y-13713D01*
X24999Y-13902D01*
X25156Y-14065D01*
X25341Y-14193D01*
X25547Y-14284D01*
X25768Y-14332D01*
X25993Y-14337D01*
X26215Y-14297D01*
X26426Y-14216D01*
X26616Y-14095D01*
X26779Y-13940D01*
X26909Y-13755D01*
X27001Y-13549D01*
X27051Y-13329D01*
X27055Y-13072D01*
X27055Y-17050D01*
X23950Y-17050D01*
X23950Y-15150D01*
X17532Y-15150D01*
X18320Y-13716D01*
X19470Y-12345D01*
X20865Y-11224D01*
X22451Y-10395D01*
X24167Y-9890D01*
X25950Y-9727D01*
X27729Y-9914D01*
X29439Y-10444D01*
X31013Y-11295D01*
X32392Y-12436D01*
X33523Y-13822D01*
X34228Y-15150D01*
G54D10*
G36*
X28549Y-18338D02*
X28520Y-24875D01*
X26446Y-24875D01*
X26482Y-24861D01*
X26552Y-24816D01*
X26613Y-24759D01*
X26661Y-24690D01*
X26695Y-24614D01*
X26713Y-24533D01*
X26715Y-24438D01*
X26698Y-24356D01*
X26667Y-24279D01*
X26620Y-24210D01*
X26562Y-24150D01*
X26493Y-24104D01*
X26416Y-24072D01*
X26334Y-24055D01*
X26251Y-24054D01*
X26169Y-24070D01*
X26092Y-24101D01*
X26022Y-24147D01*
X25962Y-24205D01*
X25915Y-24274D01*
X25882Y-24350D01*
X25865Y-24432D01*
X25865Y-24437D01*
X25428Y-24875D01*
X23225Y-24875D01*
X23249Y-18387D01*
X24207Y-18100D01*
X27643Y-18100D01*
X28549Y-18338D01*
X28549Y-18338D01*
G37*
G54D17*
X28549Y-18338D02*
X28520Y-24875D01*
X26446Y-24875D01*
X26482Y-24861D01*
X26552Y-24816D01*
X26613Y-24759D01*
X26661Y-24690D01*
X26695Y-24614D01*
X26713Y-24533D01*
X26715Y-24438D01*
X26698Y-24356D01*
X26667Y-24279D01*
X26620Y-24210D01*
X26562Y-24150D01*
X26493Y-24104D01*
X26416Y-24072D01*
X26334Y-24055D01*
X26251Y-24054D01*
X26169Y-24070D01*
X26092Y-24101D01*
X26022Y-24147D01*
X25962Y-24205D01*
X25915Y-24274D01*
X25882Y-24350D01*
X25865Y-24432D01*
X25865Y-24437D01*
X25428Y-24875D01*
X23225Y-24875D01*
X23249Y-18387D01*
X24207Y-18100D01*
X27643Y-18100D01*
X28549Y-18338D01*
G54D10*
G36*
X35055Y-18897D02*
X35051Y-19153D01*
X34827Y-20928D01*
X34262Y-22626D01*
X33378Y-24182D01*
X32209Y-25537D01*
X30799Y-26638D01*
X29201Y-27445D01*
X27478Y-27926D01*
X26659Y-27990D01*
X26779Y-27875D01*
X26909Y-27690D01*
X27001Y-27484D01*
X27051Y-27264D01*
X27055Y-27007D01*
X27011Y-26786D01*
X26925Y-26577D01*
X26800Y-26389D01*
X26641Y-26229D01*
X26540Y-26161D01*
X26540Y-25640D01*
X29500Y-25640D01*
X29500Y-18221D01*
X28600Y-17671D01*
X28600Y-16100D01*
X34586Y-16141D01*
X34880Y-17116D01*
X35055Y-18897D01*
X35055Y-18897D01*
G37*
G54D17*
X35055Y-18897D02*
X35051Y-19153D01*
X34827Y-20928D01*
X34262Y-22626D01*
X33378Y-24182D01*
X32209Y-25537D01*
X30799Y-26638D01*
X29201Y-27445D01*
X27478Y-27926D01*
X26659Y-27990D01*
X26779Y-27875D01*
X26909Y-27690D01*
X27001Y-27484D01*
X27051Y-27264D01*
X27055Y-27007D01*
X27011Y-26786D01*
X26925Y-26577D01*
X26800Y-26389D01*
X26641Y-26229D01*
X26540Y-26161D01*
X26540Y-25640D01*
X29500Y-25640D01*
X29500Y-18221D01*
X28600Y-17671D01*
X28600Y-16100D01*
X34586Y-16141D01*
X34880Y-17116D01*
X35055Y-18897D01*
G54D10*
G36*
X25260Y-26167D02*
X25180Y-26219D01*
X25019Y-26377D01*
X24892Y-26563D01*
X24803Y-26770D01*
X24756Y-26991D01*
X24753Y-27216D01*
X24794Y-27438D01*
X24877Y-27648D01*
X24999Y-27837D01*
X25156Y-28000D01*
X25156Y-28000D01*
X23917Y-27852D01*
X22215Y-27299D01*
X20652Y-26426D01*
X19290Y-25266D01*
X18178Y-23864D01*
X17360Y-22272D01*
X16867Y-20552D01*
X16717Y-18768D01*
X16917Y-16990D01*
X17247Y-15950D01*
X23200Y-15950D01*
X23200Y-17474D01*
X22249Y-18174D01*
X22260Y-25640D01*
X25260Y-25640D01*
X25260Y-26167D01*
X25260Y-26167D01*
G37*
G54D17*
X25260Y-26167D02*
X25180Y-26219D01*
X25019Y-26377D01*
X24892Y-26563D01*
X24803Y-26770D01*
X24756Y-26991D01*
X24753Y-27216D01*
X24794Y-27438D01*
X24877Y-27648D01*
X24999Y-27837D01*
X25156Y-28000D01*
X25156Y-28000D01*
X23917Y-27852D01*
X22215Y-27299D01*
X20652Y-26426D01*
X19290Y-25266D01*
X18178Y-23864D01*
X17360Y-22272D01*
X16867Y-20552D01*
X16717Y-18768D01*
X16917Y-16990D01*
X17247Y-15950D01*
X23200Y-15950D01*
X23200Y-17474D01*
X22249Y-18174D01*
X22260Y-25640D01*
X25260Y-25640D01*
X25260Y-26167D01*
M02*
