%FSLAX34Y34*%
G04 Gerber Fmt 3.4, Leading zero omitted, Abs format*
G04 (created by PCBNEW (2014-jan-25)-product) date Wed 23 Sep 2015 02:14:26 PM EDT*
%MOIN*%
G01*
G70*
G90*
G04 APERTURE LIST*
%ADD10C,0.005906*%
%ADD11C,0.030000*%
%ADD12R,0.350000X0.420000*%
%ADD13R,0.120000X0.070000*%
%ADD14R,0.080000X0.130000*%
%ADD15R,0.170000X0.170000*%
%ADD16C,0.035000*%
%ADD17C,0.250000*%
%ADD18R,0.445000X0.094000*%
%ADD19R,0.086600X0.070900*%
%ADD20R,0.080000X0.060000*%
%ADD21R,0.070900X0.086600*%
%ADD22R,0.400000X0.094000*%
%ADD23C,0.016000*%
%ADD24C,0.032000*%
%ADD25C,0.024000*%
%ADD26C,0.010000*%
G04 APERTURE END LIST*
G54D10*
G54D11*
X33133Y-23403D03*
X33133Y-22203D03*
X33133Y-22603D03*
X33133Y-23003D03*
X33133Y-21803D03*
X33133Y-21403D03*
X33133Y-21003D03*
X32731Y-21000D03*
X32731Y-21400D03*
X32731Y-21800D03*
X32731Y-23000D03*
X32731Y-22600D03*
X32731Y-22200D03*
X32731Y-23400D03*
X30730Y-23400D03*
X32330Y-23400D03*
X31130Y-23400D03*
X31930Y-23400D03*
X31530Y-23400D03*
X30730Y-22200D03*
X32330Y-22200D03*
X31130Y-22200D03*
X31930Y-22200D03*
X31530Y-22200D03*
X31530Y-22600D03*
X31930Y-22600D03*
X31130Y-22600D03*
X32330Y-22600D03*
X30730Y-22600D03*
X31530Y-23000D03*
X31930Y-23000D03*
X31130Y-23000D03*
X32330Y-23000D03*
X30730Y-23000D03*
X30730Y-21800D03*
X32330Y-21800D03*
X31130Y-21800D03*
X31930Y-21800D03*
X31530Y-21800D03*
X30730Y-21400D03*
X32330Y-21400D03*
X31130Y-21400D03*
X31930Y-21400D03*
X31530Y-21400D03*
X31530Y-21000D03*
X31930Y-21000D03*
G54D12*
X31730Y-22200D03*
G54D13*
X27980Y-21200D03*
X27980Y-23200D03*
G54D11*
X31130Y-21000D03*
X32330Y-21000D03*
X30730Y-21000D03*
X18617Y-21000D03*
X18617Y-22200D03*
X18617Y-21800D03*
X18617Y-21400D03*
X18617Y-22600D03*
X18617Y-23000D03*
X18617Y-23400D03*
X19023Y-23400D03*
X19023Y-23000D03*
X19023Y-22600D03*
X19023Y-21400D03*
X19023Y-21800D03*
X19023Y-22200D03*
X19023Y-21000D03*
X21025Y-21000D03*
X19425Y-21000D03*
X20625Y-21000D03*
X19825Y-21000D03*
X20225Y-21000D03*
X21025Y-22200D03*
X19425Y-22200D03*
X20625Y-22200D03*
X19825Y-22200D03*
X20225Y-22200D03*
X20225Y-21800D03*
X19825Y-21800D03*
X20625Y-21800D03*
X19425Y-21800D03*
X21025Y-21800D03*
X20225Y-21400D03*
X19825Y-21400D03*
X20625Y-21400D03*
X19425Y-21400D03*
X21025Y-21400D03*
X21025Y-22600D03*
X19425Y-22600D03*
X20625Y-22600D03*
X19825Y-22600D03*
X20225Y-22600D03*
X21025Y-23000D03*
X19425Y-23000D03*
X20625Y-23000D03*
X19825Y-23000D03*
X20225Y-23000D03*
X20225Y-23400D03*
X19825Y-23400D03*
G54D12*
X20025Y-22200D03*
G54D13*
X23775Y-23200D03*
X23775Y-21200D03*
G54D11*
X20625Y-23400D03*
X19425Y-23400D03*
X21025Y-23400D03*
G54D14*
X27320Y-11070D03*
X24500Y-11050D03*
G54D15*
X26100Y-18900D03*
G54D16*
X25450Y-19550D03*
X25450Y-18250D03*
X26750Y-18250D03*
X26750Y-19550D03*
G54D17*
X33400Y-18900D03*
X18400Y-18900D03*
G54D18*
X21000Y-14290D03*
X21000Y-16910D03*
G54D19*
X24700Y-21410D03*
X24700Y-22990D03*
X27000Y-23010D03*
X27000Y-21430D03*
G54D20*
X28600Y-18850D03*
X28600Y-20150D03*
G54D21*
X28290Y-24475D03*
X26710Y-24475D03*
X23710Y-24470D03*
X25290Y-24470D03*
G54D20*
X23800Y-22850D03*
X23800Y-21550D03*
X28000Y-21550D03*
X28000Y-22850D03*
X23250Y-18850D03*
X23250Y-20150D03*
G54D18*
X30800Y-14290D03*
X30800Y-16910D03*
G54D22*
X25900Y-16600D03*
G54D16*
X24900Y-16600D03*
X24050Y-16600D03*
X26900Y-16600D03*
X27750Y-16600D03*
X28650Y-13500D03*
X29350Y-13500D03*
X30050Y-13500D03*
X30750Y-13500D03*
X31450Y-13500D03*
X32150Y-13500D03*
X32850Y-13500D03*
X23300Y-13500D03*
X22700Y-13500D03*
X22000Y-13500D03*
X21300Y-13500D03*
X20600Y-13500D03*
X19900Y-13500D03*
X19200Y-13500D03*
X28400Y-15000D03*
X33200Y-15000D03*
X32400Y-15000D03*
X31600Y-15000D03*
X30800Y-15000D03*
X30000Y-15000D03*
X29200Y-15000D03*
X18600Y-15000D03*
X23400Y-15000D03*
X22600Y-15000D03*
X21800Y-15000D03*
X21000Y-15000D03*
X20200Y-15000D03*
X19400Y-15000D03*
X23365Y-21950D03*
X24190Y-21950D03*
X24190Y-20855D03*
X23375Y-20860D03*
X27500Y-22450D03*
X28400Y-22450D03*
X28400Y-23700D03*
X27550Y-23700D03*
X26290Y-24480D03*
X17370Y-16150D03*
X18150Y-16150D03*
X18950Y-16150D03*
X19750Y-16150D03*
X20550Y-16150D03*
X21350Y-16150D03*
X22150Y-16150D03*
X23000Y-16100D03*
X17095Y-17315D03*
X16940Y-18350D03*
X16985Y-19560D03*
X17145Y-20595D03*
X17370Y-21500D03*
X17670Y-22340D03*
X18020Y-23150D03*
X18360Y-23820D03*
X18900Y-24480D03*
X19460Y-25090D03*
X20070Y-25690D03*
X20700Y-26205D03*
X21515Y-26640D03*
X22200Y-27075D03*
X23115Y-27435D03*
X23940Y-27660D03*
X24615Y-27570D03*
X24600Y-26700D03*
X24090Y-25860D03*
X25040Y-25840D03*
X23160Y-25875D03*
X22140Y-25770D03*
X22005Y-24735D03*
X22035Y-23805D03*
X22000Y-19690D03*
X21995Y-18780D03*
X22085Y-17890D03*
X22730Y-17550D03*
X23050Y-16870D03*
X30800Y-16910D03*
X28755Y-17025D03*
X29100Y-17760D03*
X29670Y-18195D03*
X29700Y-18900D03*
X29750Y-19775D03*
X29730Y-23710D03*
X29690Y-24740D03*
X29680Y-25750D03*
X28890Y-25780D03*
X28150Y-25790D03*
X27430Y-25800D03*
X26740Y-25820D03*
X27250Y-26680D03*
X27110Y-27700D03*
X28110Y-27510D03*
X28960Y-27290D03*
X29790Y-26940D03*
X30510Y-26550D03*
X31180Y-26110D03*
X31810Y-25600D03*
X32460Y-25000D03*
X33080Y-24270D03*
X29500Y-16270D03*
X30300Y-16270D03*
X31100Y-16270D03*
X31900Y-16270D03*
X32700Y-16270D03*
X33500Y-16270D03*
X34300Y-16270D03*
X34620Y-17060D03*
X34810Y-17910D03*
X34840Y-18840D03*
X34740Y-19950D03*
X34570Y-20940D03*
X34270Y-21860D03*
X33960Y-22710D03*
X33600Y-23530D03*
X28760Y-16270D03*
G54D23*
X30050Y-13500D02*
X29350Y-13500D01*
X31450Y-13500D02*
X30750Y-13500D01*
X32850Y-13500D02*
X32150Y-13500D01*
X22000Y-13500D02*
X22700Y-13500D01*
X20600Y-13500D02*
X21300Y-13500D01*
X19200Y-13500D02*
X19900Y-13500D01*
X21000Y-14290D02*
X21000Y-13800D01*
X21000Y-13800D02*
X21300Y-13500D01*
X30800Y-14290D02*
X30800Y-13550D01*
X30800Y-13550D02*
X30750Y-13500D01*
X30800Y-15000D02*
X30800Y-14290D01*
X21000Y-15000D02*
X21000Y-14290D01*
X33200Y-15000D02*
X32400Y-15000D01*
X30800Y-15000D02*
X31600Y-15000D01*
X29200Y-15000D02*
X30000Y-15000D01*
X21800Y-15000D02*
X22600Y-15000D01*
X20200Y-15000D02*
X21000Y-15000D01*
X19400Y-15000D02*
X18600Y-15000D01*
X23375Y-20860D02*
X23365Y-21950D01*
X23415Y-21100D02*
X23415Y-21200D01*
X24190Y-21950D02*
X23365Y-21950D01*
X23415Y-21100D02*
X24190Y-20855D01*
X28300Y-23190D02*
X28300Y-23240D01*
X28400Y-23700D02*
X28400Y-22450D01*
X28300Y-23240D02*
X27550Y-23700D01*
X28290Y-24475D02*
X28625Y-24475D01*
X28625Y-24475D02*
X29025Y-24075D01*
X28550Y-20700D02*
X28550Y-20175D01*
X28400Y-21140D02*
X28550Y-20700D01*
X28400Y-21540D02*
X28400Y-21140D01*
X28550Y-20175D02*
X28600Y-20150D01*
G54D24*
X28300Y-21190D02*
X27560Y-21210D01*
X27560Y-21210D02*
X27050Y-21430D01*
G54D23*
X27560Y-21210D02*
X27050Y-21430D01*
X29025Y-24075D02*
X29025Y-22025D01*
X28350Y-21490D02*
X28000Y-21190D01*
X28500Y-21490D02*
X28350Y-21490D01*
X29025Y-22025D02*
X28500Y-21490D01*
G54D25*
X28000Y-21190D02*
X28000Y-21140D01*
X28000Y-21140D02*
X28400Y-21540D01*
G54D23*
X28400Y-21540D02*
X28300Y-21190D01*
X23710Y-24470D02*
X23425Y-23230D01*
X23425Y-23230D02*
X23455Y-23200D01*
X23455Y-23200D02*
X23790Y-23200D01*
X23250Y-20150D02*
X23175Y-20150D01*
X23900Y-22800D02*
X23515Y-22850D01*
X23125Y-22800D02*
X23900Y-22800D01*
X22775Y-22450D02*
X23125Y-22800D01*
X22775Y-20550D02*
X22775Y-22450D01*
X23175Y-20150D02*
X22775Y-20550D01*
G54D24*
X23415Y-23200D02*
X23455Y-23200D01*
X23415Y-23200D02*
X23415Y-22850D01*
X23415Y-22850D02*
X23555Y-22990D01*
X23555Y-22990D02*
X24750Y-22990D01*
X23665Y-22990D02*
X23915Y-22990D01*
X23915Y-22990D02*
X24750Y-22990D01*
X23455Y-23200D02*
X23665Y-22990D01*
G54D23*
X23200Y-15550D02*
X23550Y-15550D01*
X23550Y-15870D02*
X23550Y-18000D01*
X23550Y-15550D02*
X23550Y-15870D01*
X24000Y-10550D02*
X24520Y-10560D01*
X22350Y-10550D02*
X24000Y-10550D01*
X22000Y-10700D02*
X22350Y-10550D01*
X21700Y-10850D02*
X22000Y-10700D01*
X21400Y-11000D02*
X21700Y-10850D01*
X21100Y-11150D02*
X21400Y-11000D01*
X20800Y-11350D02*
X21100Y-11150D01*
X20500Y-11550D02*
X20800Y-11350D01*
X20250Y-11750D02*
X20500Y-11550D01*
X20000Y-11950D02*
X20250Y-11750D01*
X19750Y-12150D02*
X20000Y-11950D01*
X19500Y-12400D02*
X19750Y-12150D01*
X19200Y-12700D02*
X19500Y-12400D01*
X18900Y-13050D02*
X19200Y-12700D01*
X18600Y-13450D02*
X18900Y-13050D01*
X18300Y-13850D02*
X18600Y-13450D01*
X18050Y-14400D02*
X18300Y-13850D01*
X18050Y-15230D02*
X18050Y-14400D01*
X18370Y-15550D02*
X18050Y-15230D01*
X23230Y-15550D02*
X23200Y-15550D01*
X23200Y-15550D02*
X18370Y-15550D01*
X28600Y-18850D02*
X28600Y-18400D01*
X23900Y-17650D02*
X23550Y-18000D01*
X27850Y-17650D02*
X23900Y-17650D01*
X28600Y-18400D02*
X27850Y-17650D01*
X23250Y-18300D02*
X23250Y-18850D01*
X23550Y-18000D02*
X23250Y-18300D01*
X26710Y-24475D02*
X26295Y-24475D01*
X26295Y-24475D02*
X26290Y-24480D01*
X19965Y-22200D02*
X19965Y-20750D01*
X19965Y-20750D02*
X18400Y-18900D01*
X26710Y-24475D02*
X26710Y-24435D01*
X19940Y-22175D02*
X19965Y-22200D01*
X21665Y-23900D02*
X19940Y-22175D01*
X17370Y-16150D02*
X17270Y-16250D01*
X21000Y-16910D02*
X22290Y-16910D01*
X18950Y-16150D02*
X18150Y-16150D01*
X20550Y-16150D02*
X19750Y-16150D01*
X22150Y-16150D02*
X21350Y-16150D01*
X22290Y-16910D02*
X23000Y-16100D01*
X18400Y-18900D02*
X19010Y-18900D01*
X19010Y-18900D02*
X21000Y-16910D01*
X23010Y-16910D02*
X21000Y-16910D01*
X17095Y-17315D02*
X16815Y-17130D01*
X16815Y-17130D02*
X16940Y-18350D01*
X16985Y-19560D02*
X17090Y-19665D01*
X17090Y-19665D02*
X17145Y-20595D01*
X17370Y-21500D02*
X17475Y-21915D01*
X17475Y-21915D02*
X17670Y-22340D01*
X18020Y-23150D02*
X18250Y-23590D01*
X18250Y-23590D02*
X18360Y-23820D01*
X18900Y-24480D02*
X19460Y-25040D01*
X19460Y-25040D02*
X19460Y-25090D01*
X20070Y-25690D02*
X20530Y-26205D01*
X20530Y-26205D02*
X20700Y-26205D01*
X21515Y-26640D02*
X21790Y-27220D01*
X21790Y-27220D02*
X22200Y-27075D01*
X23115Y-27435D02*
X23350Y-27800D01*
X23350Y-27800D02*
X23940Y-27660D01*
X24615Y-27570D02*
X25030Y-27790D01*
X25030Y-27790D02*
X24600Y-26700D01*
X24090Y-25860D02*
X25040Y-25840D01*
X23160Y-25875D02*
X22140Y-25770D01*
X22005Y-24735D02*
X21965Y-24695D01*
X21965Y-24695D02*
X22035Y-23805D01*
X22000Y-19690D02*
X21995Y-19685D01*
X21995Y-19685D02*
X21995Y-18780D01*
X22085Y-17890D02*
X22425Y-17550D01*
X22425Y-17550D02*
X22730Y-17550D01*
X23050Y-16870D02*
X23010Y-16910D01*
X31730Y-22200D02*
X31730Y-21620D01*
X31730Y-21620D02*
X29750Y-19775D01*
X28870Y-16910D02*
X30800Y-16910D01*
X28755Y-17025D02*
X28870Y-16910D01*
X29235Y-17760D02*
X29100Y-17760D01*
X29670Y-18195D02*
X29235Y-17760D01*
X29735Y-19760D02*
X29700Y-18900D01*
X29750Y-19775D02*
X29735Y-19760D01*
X29690Y-24740D02*
X29730Y-23710D01*
X28890Y-25780D02*
X29680Y-25750D01*
X27475Y-25755D02*
X28150Y-25790D01*
X27430Y-25800D02*
X27475Y-25755D01*
X27235Y-26665D02*
X26740Y-25820D01*
X27250Y-26680D02*
X27235Y-26665D01*
X27495Y-27960D02*
X27110Y-27700D01*
X28110Y-27510D02*
X27495Y-27960D01*
X29100Y-27630D02*
X28960Y-27290D01*
X29790Y-26940D02*
X29100Y-27630D01*
X30650Y-26750D02*
X30510Y-26550D01*
X31180Y-26110D02*
X30650Y-26750D01*
X31850Y-25600D02*
X31810Y-25600D01*
X32460Y-25000D02*
X31850Y-25600D01*
X33200Y-24155D02*
X33080Y-24270D01*
X29500Y-16270D02*
X30300Y-16270D01*
X31100Y-16270D02*
X31900Y-16270D01*
X32700Y-16270D02*
X33500Y-16270D01*
X34300Y-16270D02*
X34620Y-16980D01*
X34620Y-16980D02*
X34620Y-17060D01*
X34810Y-17910D02*
X34855Y-17955D01*
X34855Y-17955D02*
X34840Y-18840D01*
X34740Y-19950D02*
X34800Y-20055D01*
X34800Y-20055D02*
X34570Y-20940D01*
X34270Y-21860D02*
X33990Y-22375D01*
X33990Y-22375D02*
X33960Y-22710D01*
X33200Y-24155D02*
X33600Y-23530D01*
X25290Y-24470D02*
X25290Y-24480D01*
X25290Y-24480D02*
X27315Y-25805D01*
X31775Y-22165D02*
X31750Y-22190D01*
X31775Y-22715D02*
X31775Y-22165D01*
X31750Y-20840D02*
X33400Y-18900D01*
X31750Y-22540D02*
X31750Y-20840D01*
X25290Y-24675D02*
X25290Y-24690D01*
X32790Y-18900D02*
X31000Y-17110D01*
X33400Y-18900D02*
X32790Y-18900D01*
X31000Y-16710D02*
X30800Y-16910D01*
X30800Y-16910D02*
X31410Y-16910D01*
X31730Y-22905D02*
X33080Y-24270D01*
X31730Y-22200D02*
X31730Y-22905D01*
X30800Y-16570D02*
X31100Y-16270D01*
X30800Y-16910D02*
X30800Y-16570D01*
G54D10*
G36*
X25260Y-26167D02*
X25180Y-26219D01*
X25019Y-26377D01*
X24892Y-26563D01*
X24803Y-26770D01*
X24756Y-26991D01*
X24753Y-27216D01*
X24794Y-27438D01*
X24877Y-27648D01*
X24999Y-27837D01*
X25156Y-28000D01*
X25156Y-28000D01*
X23917Y-27852D01*
X22215Y-27299D01*
X20652Y-26426D01*
X19290Y-25266D01*
X18178Y-23864D01*
X17360Y-22272D01*
X16867Y-20552D01*
X16717Y-18768D01*
X16917Y-16990D01*
X17247Y-15950D01*
X23200Y-15950D01*
X23200Y-17474D01*
X22249Y-18174D01*
X22260Y-25640D01*
X25260Y-25640D01*
X25260Y-26167D01*
X25260Y-26167D01*
G37*
G54D26*
X25260Y-26167D02*
X25180Y-26219D01*
X25019Y-26377D01*
X24892Y-26563D01*
X24803Y-26770D01*
X24756Y-26991D01*
X24753Y-27216D01*
X24794Y-27438D01*
X24877Y-27648D01*
X24999Y-27837D01*
X25156Y-28000D01*
X25156Y-28000D01*
X23917Y-27852D01*
X22215Y-27299D01*
X20652Y-26426D01*
X19290Y-25266D01*
X18178Y-23864D01*
X17360Y-22272D01*
X16867Y-20552D01*
X16717Y-18768D01*
X16917Y-16990D01*
X17247Y-15950D01*
X23200Y-15950D01*
X23200Y-17474D01*
X22249Y-18174D01*
X22260Y-25640D01*
X25260Y-25640D01*
X25260Y-26167D01*
G54D10*
G36*
X35055Y-18897D02*
X35051Y-19153D01*
X34827Y-20928D01*
X34262Y-22626D01*
X33378Y-24182D01*
X32209Y-25537D01*
X30799Y-26638D01*
X29201Y-27445D01*
X27478Y-27926D01*
X26659Y-27990D01*
X26779Y-27875D01*
X26909Y-27690D01*
X27001Y-27484D01*
X27051Y-27264D01*
X27055Y-27007D01*
X27011Y-26786D01*
X26925Y-26577D01*
X26800Y-26389D01*
X26641Y-26229D01*
X26540Y-26161D01*
X26540Y-25640D01*
X29500Y-25640D01*
X29500Y-18221D01*
X28600Y-17671D01*
X28600Y-16100D01*
X34586Y-16141D01*
X34880Y-17116D01*
X35055Y-18897D01*
X35055Y-18897D01*
G37*
G54D26*
X35055Y-18897D02*
X35051Y-19153D01*
X34827Y-20928D01*
X34262Y-22626D01*
X33378Y-24182D01*
X32209Y-25537D01*
X30799Y-26638D01*
X29201Y-27445D01*
X27478Y-27926D01*
X26659Y-27990D01*
X26779Y-27875D01*
X26909Y-27690D01*
X27001Y-27484D01*
X27051Y-27264D01*
X27055Y-27007D01*
X27011Y-26786D01*
X26925Y-26577D01*
X26800Y-26389D01*
X26641Y-26229D01*
X26540Y-26161D01*
X26540Y-25640D01*
X29500Y-25640D01*
X29500Y-18221D01*
X28600Y-17671D01*
X28600Y-16100D01*
X34586Y-16141D01*
X34880Y-17116D01*
X35055Y-18897D01*
G54D10*
G36*
X34228Y-15150D02*
X27970Y-15150D01*
X27970Y-11744D01*
X27970Y-11695D01*
X27970Y-11282D01*
X27970Y-10857D01*
X27970Y-10444D01*
X27970Y-10395D01*
X27960Y-10347D01*
X27941Y-10301D01*
X27914Y-10260D01*
X27879Y-10225D01*
X27838Y-10198D01*
X27792Y-10179D01*
X27744Y-10170D01*
X27532Y-10170D01*
X27470Y-10232D01*
X27470Y-10920D01*
X27907Y-10920D01*
X27970Y-10857D01*
X27970Y-11282D01*
X27907Y-11220D01*
X27470Y-11220D01*
X27470Y-11907D01*
X27532Y-11970D01*
X27744Y-11970D01*
X27792Y-11960D01*
X27838Y-11941D01*
X27879Y-11914D01*
X27914Y-11879D01*
X27941Y-11838D01*
X27960Y-11792D01*
X27970Y-11744D01*
X27970Y-15150D01*
X27850Y-15150D01*
X27850Y-17050D01*
X27170Y-17050D01*
X27170Y-11907D01*
X27170Y-11220D01*
X27170Y-10920D01*
X27170Y-10232D01*
X27107Y-10170D01*
X26895Y-10170D01*
X26847Y-10179D01*
X26801Y-10198D01*
X26760Y-10225D01*
X26725Y-10260D01*
X26698Y-10301D01*
X26679Y-10347D01*
X26670Y-10395D01*
X26670Y-10444D01*
X26670Y-10857D01*
X26732Y-10920D01*
X27170Y-10920D01*
X27170Y-11220D01*
X26732Y-11220D01*
X26670Y-11282D01*
X26670Y-11695D01*
X26670Y-11744D01*
X26679Y-11792D01*
X26698Y-11838D01*
X26725Y-11879D01*
X26760Y-11914D01*
X26801Y-11941D01*
X26847Y-11960D01*
X26895Y-11970D01*
X27107Y-11970D01*
X27170Y-11907D01*
X27170Y-17050D01*
X27055Y-17050D01*
X27055Y-13072D01*
X27011Y-12851D01*
X26925Y-12642D01*
X26800Y-12454D01*
X26641Y-12294D01*
X26454Y-12168D01*
X26246Y-12081D01*
X26025Y-12035D01*
X25800Y-12034D01*
X25578Y-12076D01*
X25369Y-12160D01*
X25180Y-12284D01*
X25019Y-12442D01*
X24892Y-12628D01*
X24803Y-12835D01*
X24756Y-13056D01*
X24753Y-13281D01*
X24794Y-13503D01*
X24877Y-13713D01*
X24999Y-13902D01*
X25156Y-14065D01*
X25341Y-14193D01*
X25547Y-14284D01*
X25768Y-14332D01*
X25993Y-14337D01*
X26215Y-14297D01*
X26426Y-14216D01*
X26616Y-14095D01*
X26779Y-13940D01*
X26909Y-13755D01*
X27001Y-13549D01*
X27051Y-13329D01*
X27055Y-13072D01*
X27055Y-17050D01*
X23950Y-17050D01*
X23950Y-15150D01*
X18436Y-15150D01*
X18380Y-15093D01*
X18380Y-14471D01*
X18585Y-14019D01*
X18864Y-13648D01*
X19157Y-13256D01*
X19442Y-12924D01*
X19733Y-12633D01*
X19970Y-12396D01*
X20206Y-12207D01*
X20206Y-12207D01*
X20206Y-12207D01*
X20456Y-12007D01*
X20456Y-12007D01*
X20456Y-12007D01*
X20694Y-11816D01*
X20983Y-11624D01*
X21265Y-11435D01*
X21547Y-11295D01*
X21547Y-11295D01*
X21547Y-11295D01*
X21847Y-11145D01*
X21847Y-11145D01*
X21847Y-11145D01*
X22138Y-10999D01*
X22417Y-10880D01*
X23850Y-10880D01*
X23850Y-11724D01*
X23859Y-11772D01*
X23878Y-11818D01*
X23905Y-11859D01*
X23940Y-11894D01*
X23981Y-11921D01*
X24027Y-11940D01*
X24075Y-11950D01*
X24124Y-11950D01*
X24924Y-11950D01*
X24972Y-11940D01*
X25018Y-11921D01*
X25059Y-11894D01*
X25094Y-11859D01*
X25121Y-11818D01*
X25140Y-11772D01*
X25150Y-11724D01*
X25150Y-11675D01*
X25150Y-10375D01*
X25140Y-10327D01*
X25121Y-10281D01*
X25094Y-10240D01*
X25059Y-10205D01*
X25018Y-10178D01*
X24972Y-10159D01*
X24924Y-10150D01*
X24875Y-10150D01*
X24075Y-10150D01*
X24027Y-10159D01*
X23981Y-10178D01*
X23940Y-10205D01*
X23926Y-10220D01*
X23047Y-10220D01*
X24167Y-9890D01*
X25950Y-9727D01*
X27729Y-9914D01*
X29439Y-10444D01*
X31013Y-11295D01*
X32392Y-12436D01*
X33523Y-13822D01*
X34228Y-15150D01*
X34228Y-15150D01*
G37*
G54D26*
X34228Y-15150D02*
X27970Y-15150D01*
X27970Y-11744D01*
X27970Y-11695D01*
X27970Y-11282D01*
X27970Y-10857D01*
X27970Y-10444D01*
X27970Y-10395D01*
X27960Y-10347D01*
X27941Y-10301D01*
X27914Y-10260D01*
X27879Y-10225D01*
X27838Y-10198D01*
X27792Y-10179D01*
X27744Y-10170D01*
X27532Y-10170D01*
X27470Y-10232D01*
X27470Y-10920D01*
X27907Y-10920D01*
X27970Y-10857D01*
X27970Y-11282D01*
X27907Y-11220D01*
X27470Y-11220D01*
X27470Y-11907D01*
X27532Y-11970D01*
X27744Y-11970D01*
X27792Y-11960D01*
X27838Y-11941D01*
X27879Y-11914D01*
X27914Y-11879D01*
X27941Y-11838D01*
X27960Y-11792D01*
X27970Y-11744D01*
X27970Y-15150D01*
X27850Y-15150D01*
X27850Y-17050D01*
X27170Y-17050D01*
X27170Y-11907D01*
X27170Y-11220D01*
X27170Y-10920D01*
X27170Y-10232D01*
X27107Y-10170D01*
X26895Y-10170D01*
X26847Y-10179D01*
X26801Y-10198D01*
X26760Y-10225D01*
X26725Y-10260D01*
X26698Y-10301D01*
X26679Y-10347D01*
X26670Y-10395D01*
X26670Y-10444D01*
X26670Y-10857D01*
X26732Y-10920D01*
X27170Y-10920D01*
X27170Y-11220D01*
X26732Y-11220D01*
X26670Y-11282D01*
X26670Y-11695D01*
X26670Y-11744D01*
X26679Y-11792D01*
X26698Y-11838D01*
X26725Y-11879D01*
X26760Y-11914D01*
X26801Y-11941D01*
X26847Y-11960D01*
X26895Y-11970D01*
X27107Y-11970D01*
X27170Y-11907D01*
X27170Y-17050D01*
X27055Y-17050D01*
X27055Y-13072D01*
X27011Y-12851D01*
X26925Y-12642D01*
X26800Y-12454D01*
X26641Y-12294D01*
X26454Y-12168D01*
X26246Y-12081D01*
X26025Y-12035D01*
X25800Y-12034D01*
X25578Y-12076D01*
X25369Y-12160D01*
X25180Y-12284D01*
X25019Y-12442D01*
X24892Y-12628D01*
X24803Y-12835D01*
X24756Y-13056D01*
X24753Y-13281D01*
X24794Y-13503D01*
X24877Y-13713D01*
X24999Y-13902D01*
X25156Y-14065D01*
X25341Y-14193D01*
X25547Y-14284D01*
X25768Y-14332D01*
X25993Y-14337D01*
X26215Y-14297D01*
X26426Y-14216D01*
X26616Y-14095D01*
X26779Y-13940D01*
X26909Y-13755D01*
X27001Y-13549D01*
X27051Y-13329D01*
X27055Y-13072D01*
X27055Y-17050D01*
X23950Y-17050D01*
X23950Y-15150D01*
X18436Y-15150D01*
X18380Y-15093D01*
X18380Y-14471D01*
X18585Y-14019D01*
X18864Y-13648D01*
X19157Y-13256D01*
X19442Y-12924D01*
X19733Y-12633D01*
X19970Y-12396D01*
X20206Y-12207D01*
X20206Y-12207D01*
X20206Y-12207D01*
X20456Y-12007D01*
X20456Y-12007D01*
X20456Y-12007D01*
X20694Y-11816D01*
X20983Y-11624D01*
X21265Y-11435D01*
X21547Y-11295D01*
X21547Y-11295D01*
X21547Y-11295D01*
X21847Y-11145D01*
X21847Y-11145D01*
X21847Y-11145D01*
X22138Y-10999D01*
X22417Y-10880D01*
X23850Y-10880D01*
X23850Y-11724D01*
X23859Y-11772D01*
X23878Y-11818D01*
X23905Y-11859D01*
X23940Y-11894D01*
X23981Y-11921D01*
X24027Y-11940D01*
X24075Y-11950D01*
X24124Y-11950D01*
X24924Y-11950D01*
X24972Y-11940D01*
X25018Y-11921D01*
X25059Y-11894D01*
X25094Y-11859D01*
X25121Y-11818D01*
X25140Y-11772D01*
X25150Y-11724D01*
X25150Y-11675D01*
X25150Y-10375D01*
X25140Y-10327D01*
X25121Y-10281D01*
X25094Y-10240D01*
X25059Y-10205D01*
X25018Y-10178D01*
X24972Y-10159D01*
X24924Y-10150D01*
X24875Y-10150D01*
X24075Y-10150D01*
X24027Y-10159D01*
X23981Y-10178D01*
X23940Y-10205D01*
X23926Y-10220D01*
X23047Y-10220D01*
X24167Y-9890D01*
X25950Y-9727D01*
X27729Y-9914D01*
X29439Y-10444D01*
X31013Y-11295D01*
X32392Y-12436D01*
X33523Y-13822D01*
X34228Y-15150D01*
G54D10*
G36*
X28547Y-19400D02*
X28547Y-19600D01*
X28175Y-19600D01*
X28127Y-19609D01*
X28081Y-19628D01*
X28040Y-19655D01*
X28005Y-19690D01*
X27978Y-19731D01*
X27959Y-19777D01*
X27950Y-19825D01*
X27950Y-19874D01*
X27950Y-20474D01*
X27959Y-20522D01*
X27978Y-20568D01*
X27999Y-20600D01*
X27355Y-20600D01*
X27307Y-20609D01*
X27261Y-20628D01*
X27220Y-20655D01*
X27185Y-20690D01*
X27158Y-20731D01*
X27139Y-20777D01*
X27130Y-20825D01*
X27130Y-20825D01*
X26542Y-20825D01*
X26494Y-20835D01*
X26448Y-20853D01*
X26407Y-20881D01*
X26372Y-20916D01*
X26345Y-20957D01*
X26326Y-21002D01*
X26317Y-21050D01*
X26317Y-21100D01*
X26317Y-21809D01*
X26326Y-21857D01*
X26345Y-21902D01*
X26372Y-21943D01*
X26407Y-21978D01*
X26448Y-22006D01*
X26494Y-22024D01*
X26542Y-22034D01*
X26591Y-22034D01*
X27430Y-22034D01*
X27440Y-22044D01*
X27481Y-22071D01*
X27527Y-22090D01*
X27575Y-22100D01*
X27624Y-22100D01*
X28424Y-22100D01*
X28472Y-22090D01*
X28518Y-22071D01*
X28541Y-22056D01*
X28537Y-23792D01*
X27910Y-23792D01*
X27862Y-23801D01*
X27817Y-23820D01*
X27776Y-23847D01*
X27741Y-23882D01*
X27713Y-23923D01*
X27695Y-23969D01*
X27685Y-24017D01*
X27685Y-24066D01*
X27685Y-24860D01*
X27314Y-24860D01*
X27314Y-24017D01*
X27304Y-23969D01*
X27286Y-23923D01*
X27258Y-23882D01*
X27223Y-23847D01*
X27182Y-23820D01*
X27137Y-23801D01*
X27089Y-23792D01*
X27039Y-23792D01*
X26330Y-23792D01*
X26282Y-23801D01*
X26237Y-23820D01*
X26196Y-23847D01*
X26161Y-23882D01*
X26133Y-23923D01*
X26115Y-23969D01*
X26105Y-24017D01*
X26105Y-24066D01*
X26105Y-24096D01*
X26092Y-24101D01*
X26022Y-24147D01*
X25962Y-24205D01*
X25915Y-24274D01*
X25894Y-24323D01*
X25894Y-24012D01*
X25884Y-23964D01*
X25866Y-23918D01*
X25838Y-23877D01*
X25803Y-23842D01*
X25762Y-23815D01*
X25717Y-23796D01*
X25669Y-23787D01*
X25619Y-23787D01*
X24910Y-23787D01*
X24862Y-23796D01*
X24817Y-23815D01*
X24776Y-23842D01*
X24741Y-23877D01*
X24713Y-23918D01*
X24695Y-23964D01*
X24685Y-24012D01*
X24685Y-24061D01*
X24685Y-24860D01*
X24314Y-24860D01*
X24314Y-24012D01*
X24304Y-23964D01*
X24286Y-23918D01*
X24258Y-23877D01*
X24223Y-23842D01*
X24182Y-23815D01*
X24145Y-23800D01*
X24399Y-23800D01*
X24447Y-23790D01*
X24493Y-23771D01*
X24534Y-23744D01*
X24569Y-23709D01*
X24596Y-23668D01*
X24615Y-23622D01*
X24621Y-23594D01*
X25157Y-23594D01*
X25205Y-23584D01*
X25251Y-23566D01*
X25292Y-23538D01*
X25327Y-23503D01*
X25354Y-23462D01*
X25373Y-23417D01*
X25383Y-23369D01*
X25383Y-23319D01*
X25383Y-22610D01*
X25373Y-22562D01*
X25354Y-22517D01*
X25327Y-22476D01*
X25292Y-22441D01*
X25251Y-22413D01*
X25205Y-22395D01*
X25157Y-22385D01*
X25108Y-22385D01*
X24389Y-22385D01*
X24359Y-22355D01*
X24318Y-22328D01*
X24272Y-22309D01*
X24224Y-22300D01*
X24175Y-22300D01*
X23375Y-22300D01*
X23327Y-22309D01*
X23281Y-22328D01*
X23240Y-22355D01*
X23244Y-20700D01*
X23674Y-20700D01*
X23722Y-20690D01*
X23768Y-20671D01*
X23809Y-20644D01*
X23844Y-20609D01*
X23871Y-20568D01*
X23890Y-20522D01*
X23900Y-20474D01*
X23900Y-20425D01*
X23900Y-19825D01*
X23890Y-19777D01*
X23871Y-19731D01*
X23844Y-19690D01*
X23809Y-19655D01*
X23768Y-19628D01*
X23722Y-19609D01*
X23674Y-19600D01*
X23625Y-19600D01*
X23247Y-19600D01*
X23247Y-19400D01*
X23674Y-19400D01*
X23722Y-19390D01*
X23768Y-19371D01*
X23809Y-19344D01*
X23844Y-19309D01*
X23871Y-19268D01*
X23890Y-19222D01*
X23900Y-19174D01*
X23900Y-19125D01*
X23900Y-18525D01*
X23890Y-18477D01*
X23871Y-18431D01*
X23844Y-18390D01*
X23809Y-18355D01*
X23768Y-18328D01*
X23722Y-18309D01*
X23709Y-18306D01*
X23783Y-18233D01*
X23792Y-18224D01*
X24207Y-18100D01*
X27643Y-18100D01*
X27901Y-18167D01*
X28069Y-18336D01*
X28040Y-18355D01*
X28005Y-18390D01*
X27978Y-18431D01*
X27959Y-18477D01*
X27950Y-18525D01*
X27950Y-18574D01*
X27950Y-19174D01*
X27959Y-19222D01*
X27978Y-19268D01*
X28005Y-19309D01*
X28040Y-19344D01*
X28081Y-19371D01*
X28127Y-19390D01*
X28175Y-19400D01*
X28224Y-19400D01*
X28547Y-19400D01*
X28547Y-19400D01*
G37*
G54D26*
X28547Y-19400D02*
X28547Y-19600D01*
X28175Y-19600D01*
X28127Y-19609D01*
X28081Y-19628D01*
X28040Y-19655D01*
X28005Y-19690D01*
X27978Y-19731D01*
X27959Y-19777D01*
X27950Y-19825D01*
X27950Y-19874D01*
X27950Y-20474D01*
X27959Y-20522D01*
X27978Y-20568D01*
X27999Y-20600D01*
X27355Y-20600D01*
X27307Y-20609D01*
X27261Y-20628D01*
X27220Y-20655D01*
X27185Y-20690D01*
X27158Y-20731D01*
X27139Y-20777D01*
X27130Y-20825D01*
X27130Y-20825D01*
X26542Y-20825D01*
X26494Y-20835D01*
X26448Y-20853D01*
X26407Y-20881D01*
X26372Y-20916D01*
X26345Y-20957D01*
X26326Y-21002D01*
X26317Y-21050D01*
X26317Y-21100D01*
X26317Y-21809D01*
X26326Y-21857D01*
X26345Y-21902D01*
X26372Y-21943D01*
X26407Y-21978D01*
X26448Y-22006D01*
X26494Y-22024D01*
X26542Y-22034D01*
X26591Y-22034D01*
X27430Y-22034D01*
X27440Y-22044D01*
X27481Y-22071D01*
X27527Y-22090D01*
X27575Y-22100D01*
X27624Y-22100D01*
X28424Y-22100D01*
X28472Y-22090D01*
X28518Y-22071D01*
X28541Y-22056D01*
X28537Y-23792D01*
X27910Y-23792D01*
X27862Y-23801D01*
X27817Y-23820D01*
X27776Y-23847D01*
X27741Y-23882D01*
X27713Y-23923D01*
X27695Y-23969D01*
X27685Y-24017D01*
X27685Y-24066D01*
X27685Y-24860D01*
X27314Y-24860D01*
X27314Y-24017D01*
X27304Y-23969D01*
X27286Y-23923D01*
X27258Y-23882D01*
X27223Y-23847D01*
X27182Y-23820D01*
X27137Y-23801D01*
X27089Y-23792D01*
X27039Y-23792D01*
X26330Y-23792D01*
X26282Y-23801D01*
X26237Y-23820D01*
X26196Y-23847D01*
X26161Y-23882D01*
X26133Y-23923D01*
X26115Y-23969D01*
X26105Y-24017D01*
X26105Y-24066D01*
X26105Y-24096D01*
X26092Y-24101D01*
X26022Y-24147D01*
X25962Y-24205D01*
X25915Y-24274D01*
X25894Y-24323D01*
X25894Y-24012D01*
X25884Y-23964D01*
X25866Y-23918D01*
X25838Y-23877D01*
X25803Y-23842D01*
X25762Y-23815D01*
X25717Y-23796D01*
X25669Y-23787D01*
X25619Y-23787D01*
X24910Y-23787D01*
X24862Y-23796D01*
X24817Y-23815D01*
X24776Y-23842D01*
X24741Y-23877D01*
X24713Y-23918D01*
X24695Y-23964D01*
X24685Y-24012D01*
X24685Y-24061D01*
X24685Y-24860D01*
X24314Y-24860D01*
X24314Y-24012D01*
X24304Y-23964D01*
X24286Y-23918D01*
X24258Y-23877D01*
X24223Y-23842D01*
X24182Y-23815D01*
X24145Y-23800D01*
X24399Y-23800D01*
X24447Y-23790D01*
X24493Y-23771D01*
X24534Y-23744D01*
X24569Y-23709D01*
X24596Y-23668D01*
X24615Y-23622D01*
X24621Y-23594D01*
X25157Y-23594D01*
X25205Y-23584D01*
X25251Y-23566D01*
X25292Y-23538D01*
X25327Y-23503D01*
X25354Y-23462D01*
X25373Y-23417D01*
X25383Y-23369D01*
X25383Y-23319D01*
X25383Y-22610D01*
X25373Y-22562D01*
X25354Y-22517D01*
X25327Y-22476D01*
X25292Y-22441D01*
X25251Y-22413D01*
X25205Y-22395D01*
X25157Y-22385D01*
X25108Y-22385D01*
X24389Y-22385D01*
X24359Y-22355D01*
X24318Y-22328D01*
X24272Y-22309D01*
X24224Y-22300D01*
X24175Y-22300D01*
X23375Y-22300D01*
X23327Y-22309D01*
X23281Y-22328D01*
X23240Y-22355D01*
X23244Y-20700D01*
X23674Y-20700D01*
X23722Y-20690D01*
X23768Y-20671D01*
X23809Y-20644D01*
X23844Y-20609D01*
X23871Y-20568D01*
X23890Y-20522D01*
X23900Y-20474D01*
X23900Y-20425D01*
X23900Y-19825D01*
X23890Y-19777D01*
X23871Y-19731D01*
X23844Y-19690D01*
X23809Y-19655D01*
X23768Y-19628D01*
X23722Y-19609D01*
X23674Y-19600D01*
X23625Y-19600D01*
X23247Y-19600D01*
X23247Y-19400D01*
X23674Y-19400D01*
X23722Y-19390D01*
X23768Y-19371D01*
X23809Y-19344D01*
X23844Y-19309D01*
X23871Y-19268D01*
X23890Y-19222D01*
X23900Y-19174D01*
X23900Y-19125D01*
X23900Y-18525D01*
X23890Y-18477D01*
X23871Y-18431D01*
X23844Y-18390D01*
X23809Y-18355D01*
X23768Y-18328D01*
X23722Y-18309D01*
X23709Y-18306D01*
X23783Y-18233D01*
X23792Y-18224D01*
X24207Y-18100D01*
X27643Y-18100D01*
X27901Y-18167D01*
X28069Y-18336D01*
X28040Y-18355D01*
X28005Y-18390D01*
X27978Y-18431D01*
X27959Y-18477D01*
X27950Y-18525D01*
X27950Y-18574D01*
X27950Y-19174D01*
X27959Y-19222D01*
X27978Y-19268D01*
X28005Y-19309D01*
X28040Y-19344D01*
X28081Y-19371D01*
X28127Y-19390D01*
X28175Y-19400D01*
X28224Y-19400D01*
X28547Y-19400D01*
M02*
