%FSLAX34Y34*%
G04 Gerber Fmt 3.4, Leading zero omitted, Abs format*
G04 (created by PCBNEW (2014-jan-25)-product) date Wed 23 Sep 2015 02:14:26 PM EDT*
%MOIN*%
G01*
G70*
G90*
G04 APERTURE LIST*
%ADD10C,0.005906*%
%ADD11R,0.370000X0.440000*%
%ADD12R,0.140000X0.090000*%
%ADD13C,0.140000*%
%ADD14R,0.100000X0.150000*%
%ADD15R,0.190000X0.190000*%
%ADD16C,0.055000*%
%ADD17C,0.270000*%
%ADD18R,0.465000X0.114000*%
%ADD19R,0.106600X0.090900*%
%ADD20R,0.100000X0.080000*%
%ADD21R,0.090900X0.106600*%
%ADD22R,0.420000X0.114000*%
G04 APERTURE END LIST*
G54D10*
G54D11*
X31730Y-22200D03*
G54D12*
X27980Y-21200D03*
X27980Y-23200D03*
G54D11*
X20025Y-22200D03*
G54D12*
X23775Y-23200D03*
X23775Y-21200D03*
G54D13*
X25905Y-13185D03*
G54D14*
X27320Y-11070D03*
X24500Y-11050D03*
G54D15*
X26100Y-18900D03*
G54D16*
X25450Y-19550D03*
X25450Y-18250D03*
X26750Y-18250D03*
X26750Y-19550D03*
G54D17*
X33400Y-18900D03*
X18400Y-18900D03*
G54D18*
X21000Y-14290D03*
X21000Y-16910D03*
G54D19*
X24700Y-21410D03*
X24700Y-22990D03*
X27000Y-23010D03*
X27000Y-21430D03*
G54D20*
X28600Y-18850D03*
X28600Y-20150D03*
G54D21*
X28290Y-24475D03*
X26710Y-24475D03*
X23710Y-24470D03*
X25290Y-24470D03*
G54D20*
X23800Y-22850D03*
X23800Y-21550D03*
X28000Y-21550D03*
X28000Y-22850D03*
X23250Y-18850D03*
X23250Y-20150D03*
G54D18*
X30800Y-14290D03*
X30800Y-16910D03*
G54D22*
X25900Y-16600D03*
G54D16*
X24900Y-16600D03*
X24050Y-16600D03*
X26900Y-16600D03*
X27750Y-16600D03*
G54D13*
X25905Y-27120D03*
M02*
